<svg xmlns="http://www.w3.org/2000/svg" viewBox="0 0 251 151"><path d="M135.36,84.56c-2.41,4.35-6.53,12.91-6.07,18.49.73,8.63,9.18,17.93,13.27,21.46-1.79-5.71-2-9.86-.27-12.23.54-.76,1,2.69,3.53,4.19a14.17,14.17,0,0,1,1.44-6.42c.88-2.23,1.91-6.46,1.25-9.34-2.1-9.2-9.36-15.13-10.83-16.56Z" style="fill:#e94d59"/><path d="M135.36,84.56c-1.21,1.81-4,8.92-3.27,12.9s6.94,10.12,9.18,14.69c.47-3.81,0-5.35,1.5-8.19s1.52-3.32,1.67-5.16-1.64-6.35-3.79-10.1c-2.27-4-3-4.55-3-4.55Z" style="fill:#ef7b5c"/><path d="M135.36,84.56c-1,2.33-2.82,9.17-1.38,11.69s3.29,2.59,5.9,6.35c.56-1.43-.81-4.44.4-5.75.58,1.05.67,1.77,1.7,2.49-.52-1.59.11-3.28-.06-5.35-.2-2.41-1.77-4.44-2.85-6.42a14.37,14.37,0,0,1-1.39-3.42Z" style="fill:#fac962"/><path d="M136.29,86c-4.21.67-7.78.26-8-.93l.35,2.15c.19,1.19,3.76,1.6,8,.93s7.47-2.19,7.28-3.38l-.34-2.15C143.76,83.82,140.5,85.33,136.29,86Z" style="fill:#062633"/><path d="M136.7,88.59c-3.17.52-5.86.2-6-.69l.26,1.62c.14.89,2.83,1.2,6,.69s5.63-1.64,5.49-2.54l-.26-1.62C142.33,87,139.87,88.09,136.7,88.59Z" style="fill:#062633"/><path d="M125.89,58a53.61,53.61,0,0,0,0,19.3l1.22,7.59s5.62,1,9.07.41,8.44-3.15,8.44-3.15-.37-3.21-1.1-7.69a52.86,52.86,0,0,0-6.21-18.25,23.78,23.78,0,0,1-5.52,1.56A23.39,23.39,0,0,1,125.89,58Z" style="fill:#abaaab"/><path d="M130.34,48.76c-1,.16-3.22,3.24-4.45,9.19a23.39,23.39,0,0,0,5.89-.23,23.78,23.78,0,0,0,5.52-1.56C134.3,51,131.3,48.61,130.34,48.76Z" style="fill:#e2e0e0"/><path d="M135.82,83.09c-4.89.78-9,.3-9.26-1.07l.41,2.49c.22,1.38,4.36,1.86,9.25,1.07s8.67-2.54,8.45-3.92l-.4-2.49C144.49,80.55,140.71,82.3,135.82,83.09Z" style="fill:#062633"/><path d="M143.35,83.33a13,13,0,0,1-2.19,1c0,.11,0,.23,0,.34A5.8,5.8,0,0,0,143.35,83.33Z" style="fill:none"/><path d="M142,86.65l-.56.24c0,.06,0,.12,0,.19A2.92,2.92,0,0,0,142,86.65Z" style="fill:none"/><path d="M144.65,82.09h0v0Z" style="fill:#abaaab"/><path d="M141.2,84.68c.08.74.15,1.48.21,2.21l.56-.24a.77.77,0,0,0,.25-.61l.07.44c1.11-.56,1.75-1.17,1.66-1.71l-.27-1.66c-.1.07-.21.15-.33.22A5.8,5.8,0,0,1,141.2,84.68Z" style="fill:#051d26"/><path d="M142,86.65a2.92,2.92,0,0,1-.55.43c.05.57.09,1.14.13,1.7.64-.38,1-.77.93-1.12l-.19-1.18-.07-.44A.77.77,0,0,1,142,86.65Z" style="fill:#051d26"/><path d="M140.36,78.38c.19,1.15.35,2.3.5,3.43,2-.75,3.31-1.62,3.44-2.41-.18-1.31-.43-3-.75-5a52.84,52.84,0,0,0-6.22-18.25,21.06,21.06,0,0,1-2.75,1A94.72,94.72,0,0,1,140.36,78.38Z" style="fill:#6e6e6d"/><path d="M137.33,56.15c-3-5.12-6-7.55-7-7.4a1.09,1.09,0,0,0-.43.2,32.59,32.59,0,0,1,4.63,8.15A21.06,21.06,0,0,0,137.33,56.15Z" style="fill:#c1c1c1"/><path d="M140.86,81.81c.11.85.21,1.69.3,2.53a13,13,0,0,0,2.19-1c.12-.07.23-.15.33-.22a2.62,2.62,0,0,0,1-1v0a.83.83,0,0,0,.07-.43l-.41-2.49a.65.65,0,0,1,0,.24C144.17,80.19,142.86,81.06,140.86,81.81Z" style="fill:#051d26"/><path d="M148,87.28c-2.4,4.34-6.53,12.91-6.06,18.48.72,8.64,9.18,17.94,13.27,21.46-1.79-5.7-2-9.86-.27-12.23.54-.75,1,2.69,3.52,4.19a14.43,14.43,0,0,1,1.44-6.41c.88-2.24,1.92-6.46,1.26-9.34-2.1-9.21-9.37-15.13-10.83-16.56Z" style="fill:#e94d59"/><path d="M148,87.28c-1.2,1.8-4,8.92-3.27,12.89s6.94,10.13,9.18,14.69c.47-3.8,0-5.34,1.51-8.18s1.51-3.32,1.66-5.16-1.63-6.35-3.79-10.11c-2.26-4-3-4.54-3-4.54Z" style="fill:#ef7b5c"/><path d="M148,87.28c-1,2.32-2.81,9.17-1.37,11.69s3.29,2.59,5.89,6.34c.57-1.42-.81-4.44.41-5.74.58,1.05.66,1.76,1.7,2.48-.52-1.59.11-3.28-.06-5.35-.2-2.41-1.77-4.44-2.85-6.42a14.23,14.23,0,0,1-1.39-3.41Z" style="fill:#fac962"/><path d="M148.93,88.72c-4.21.68-7.78.27-8-.92l.35,2.15c.19,1.19,3.76,1.6,8,.92s7.47-2.19,7.28-3.38l-.35-2.15C156.41,86.53,153.15,88,148.93,88.72Z" style="fill:#062633"/><path d="M149.35,91.31c-3.17.51-5.86.2-6-.69l.26,1.61c.14.9,2.83,1.21,6,.7s5.63-1.65,5.48-2.54l-.25-1.62C155,89.66,152.52,90.8,149.35,91.31Z" style="fill:#062633"/><path d="M138.53,60.67a53.83,53.83,0,0,0,0,19.29l1.22,7.59s5.61,1,9.06.42,8.45-3.15,8.45-3.15-.37-3.21-1.1-7.7a53,53,0,0,0-6.22-18.24,25,25,0,0,1-11.41,1.79Z" style="fill:#abaaab"/><path d="M143,51.47c-1,.17-3.22,3.24-4.46,9.2a25,25,0,0,0,11.41-1.79C147,53.75,143.94,51.32,143,51.47Z" style="fill:#e2e0e0"/><path d="M148.46,85.8c-4.88.79-9,.31-9.25-1.07l.4,2.5c.23,1.37,4.37,1.85,9.26,1.07s8.67-2.54,8.45-3.92l-.41-2.5C157.14,83.26,153.35,85,148.46,85.8Z" style="fill:#062633"/><path d="M156,86.05a12.28,12.28,0,0,1-2.19,1c0,.12,0,.23,0,.34A5.81,5.81,0,0,0,156,86.05Z" style="fill:none"/><path d="M154.61,89.36l-.55.24c0,.07,0,.13,0,.2A2.55,2.55,0,0,0,154.61,89.36Z" style="fill:none"/><path d="M157.29,84.81v0Z" style="fill:#abaaab"/><path d="M153.85,87.39c.07.75.15,1.49.21,2.21l.55-.24a.73.73,0,0,0,.26-.6l.07.44c1.11-.57,1.74-1.18,1.66-1.72l-.27-1.65-.33.22A5.81,5.81,0,0,1,153.85,87.39Z" style="fill:#051d26"/><path d="M154.61,89.36a2.55,2.55,0,0,1-.54.44c.05.57.09,1.13.13,1.7.64-.38,1-.77.93-1.12l-.19-1.18-.07-.44A.73.73,0,0,1,154.61,89.36Z" style="fill:#051d26"/><path d="M153,81.09c.18,1.16.35,2.3.5,3.43,2-.74,3.31-1.62,3.44-2.4-.18-1.32-.43-3-.75-5A53.05,53.05,0,0,0,150,58.86a20.13,20.13,0,0,1-2.75,1A95.69,95.69,0,0,1,153,81.09Z" style="fill:#6e6e6d"/><path d="M150,58.86c-3-5.12-6-7.55-6.95-7.4a1.09,1.09,0,0,0-.43.2,33.31,33.31,0,0,1,4.63,8.16A20.13,20.13,0,0,0,150,58.86Z" style="fill:#c1c1c1"/><path d="M153.51,84.52c.11.85.21,1.7.3,2.53a12.28,12.28,0,0,0,2.19-1l.33-.22a2.53,2.53,0,0,0,.95-1v0a.77.77,0,0,0,.06-.42l-.4-2.5a1,1,0,0,1,0,.25C156.82,82.9,155.51,83.78,153.51,84.52Z" style="fill:#051d26"/><path d="M139.86,77.9a2.21,2.21,0,0,1-1.5.17l-.83-.24a8.55,8.55,0,0,1-1.46-.56A20.15,20.15,0,0,1,133.52,76a25.49,25.49,0,0,0-5.33-2.14,41.56,41.56,0,0,0-5.81-1.2c-2-.29-4-.48-6-.62a119.72,119.72,0,0,0-12.13,0c-2,.08-4,.2-6,.43a17.29,17.29,0,0,1-2.85.23A9.66,9.66,0,0,1,94,72.49a2,2,0,0,1-.76-.33l-.42-.29a1.1,1.1,0,0,1-.26-.27l0-.06-.06-.1-.12-.2-.06-.11L92.21,71l-.16-.32-1.34-3.44-.07-.35,0-.18c0-.06,0-.08,0-.13l0-.23v-.2a.7.7,0,0,1,.12-.4c.11-.2.23-.39.35-.57a3.09,3.09,0,0,1,.78-.79,6.37,6.37,0,0,1,.85-.51,8.62,8.62,0,0,1,.86-.43,13.86,13.86,0,0,1,3.5-.85,62.37,62.37,0,0,1,6.88-.63A65.2,65.2,0,0,1,117.48,63a53,53,0,0,1,13.23,4.14,35,35,0,0,1,6.15,3.74,6.53,6.53,0,0,1,.72.58c.23.21.45.43.67.65a7.29,7.29,0,0,1,.6.73c.19.26.36.53.54.79a6.56,6.56,0,0,1,.81,1.78,6.8,6.8,0,0,1,.19,1,1.81,1.81,0,0,1-.5,1.45Z" style="fill:#773a28"/><path d="M96.78,70.06c-1.77.85-5.94,2.21-7-2.7s5.35-4.82,5.35-4.82Z" style="fill:#5e3e21"/><path d="M118.37,95.14c-.61,0,.84,7.4.84,7.4a15,15,0,0,0,2.61-2.07,14.12,14.12,0,0,0,.38,2c1.07,4,3.68,6.85,5.83,6.28,1.53-.4.24-4-.79-7.62-.52-1.82-.84-3.67-1.24-5h0l-.62-2.33s-1.09-.67-3.82,1.58C121.1,95.84,119,95.13,118.37,95.14Zm6.75-.74Z" style="fill:#54371d"/><path d="M126.37,84.53a4.51,4.51,0,0,1,.9.38,4.7,4.7,0,0,1,.68.43,3.45,3.45,0,0,1,.87.94c.36.67.64,1.36,1,2,.59,1.36,1.17,2.73,1.64,4.12s.89,2.78,1.27,4.19c.19.7.37,1.4.55,2.11l.13.53a1.91,1.91,0,0,1,.1.53,1.75,1.75,0,0,1-.83,1.27l-13.84,2.59a1.7,1.7,0,0,1-1.23-.87,2,2,0,0,1-.11-.54l-.06-.54c-.09-.72-.17-1.44-.25-2.17-.16-1.44-.29-2.89-.34-4.36s0-3,0-4.44c.06-.74.07-1.49.16-2.24a3.63,3.63,0,0,1,.47-1.2,5.75,5.75,0,0,1,.47-.64,5.21,5.21,0,0,1,.71-.68Z" style="fill:#6d3325"/><path d="M131.68,94.07c-.58.15,1.53,4.56,1.53,4.56,1.43.21,2.2.33,3.12-.24a16.66,16.66,0,0,0,.87,1.89c2,3.65,5.25,5.74,7.2,4.66,1.37-.76-.76-3.94-2.64-7.19-.95-1.64-1.71-3.35-2.43-4.55h0l-1.16-2.11s-1.23-.39-3.32,2.46C134.5,94.08,132.27,93.91,131.68,94.07Zm6.37-2.37h0Z" style="fill:#5e3e21"/><path d="M134,82.37a5,5,0,0,1,1,.15,4.21,4.21,0,0,1,.76.26,3.48,3.48,0,0,1,1.08.7c.5.57.94,1.16,1.42,1.74.9,1.19,1.79,2.38,2.58,3.61s1.53,2.49,2.24,3.76l1.05,1.92.25.48a1.54,1.54,0,0,1,.22.49,1.72,1.72,0,0,1-.49,1.43l-12.81,5.86a1.72,1.72,0,0,1-1.4-.56,1.86,1.86,0,0,1-.24-.49l-.19-.51c-.26-.68-.52-1.36-.77-2-.5-1.37-1-2.75-1.38-4.16s-.73-2.86-1-4.31c-.13-.74-.3-1.46-.39-2.22a3.28,3.28,0,0,1,.17-1.27,4,4,0,0,1,.3-.74,5,5,0,0,1,.52-.83Z" style="fill:#773a28"/><path d="M143.62,59.13a16.41,16.41,0,1,1-2.38-23.08A16.42,16.42,0,0,1,143.62,59.13Z" style="fill:#904729"/><path d="M108.55,84.87l.49,4.82c.44,4.7,8.78,4.44,19.14,3.38,8.92-.92,19.39-1.54,18.74-8.13h0c-.55-17.38-6.8-31.34-21.73-29.81h0c-14.79,1.51-17.74,12.1-17.19,24a.57.57,0,0,0,0,.22l.07.69C108.15,81.57,108.32,83.19,108.55,84.87Z" style="fill:#904729"/><path d="M111.38,50.39c.13,6.25,3.43,12.22,6.83,14.29a17.73,17.73,0,0,0,12.65,2.76c5-.57,8.72-4.84,10.73-7.67,3.71-5.19,5.27-8.7,4.76-15.08s-5.6-13.54-12.09-15.53c-5.93-1.83-12.47.84-16.21,3.94S111.22,42.88,111.38,50.39Z" style="fill:#974e2e"/><path d="M116.09,50c-1.44,2.1-.59,5,.5,7.27S119,62,118.43,64.46A16.88,16.88,0,0,0,133.3,42.39a23.44,23.44,0,0,1-5,6.71c-2.17,1.78-5.25,2.73-7.83,1.65a20.14,20.14,0,0,0-2.76-1.27C116.72,49.23,115.46,49.55,116.09,50Z" style="fill:#5f3f22"/><path d="M120.68,33.31a25.94,25.94,0,0,0-3.4,1.81,8.19,8.19,0,0,0-3.38,3.76,13.68,13.68,0,0,0,2.6,15.76,6.78,6.78,0,0,0,9.36,1.19,13.91,13.91,0,0,0,6.39-11.49,15.85,15.85,0,0,0-2.16-8.15c-.92-1.29-3.77-3.32-5.35-3.42A35,35,0,0,0,120.68,33.31Z" style="fill:#c69666"/><path d="M122.24,32.57a9.22,9.22,0,0,0-7.36,8.22,2.52,2.52,0,0,1,2.53-.88,7.77,7.77,0,0,0,2.09.34c.16,0,1.73-2.52,3.56-3.16a16.9,16.9,0,0,0-1.86,3.27A38.24,38.24,0,0,0,126,42.61c1,.28,2.8.25,3.79.5.67.18,2.34,1,2.59,1.52,1.57-1.69.77-5.23,0-7.39a8,8,0,0,0-4.84-4.63C125.4,31.83,123,31.93,122.24,32.57Z" style="fill:#452d1b"/><path d="M124.62,46.65a7.08,7.08,0,0,1,2.58.81A1.19,1.19,0,0,0,126,46.24C125.36,46.2,125.21,46.38,124.62,46.65Z" style="fill:#452d1b"/><path d="M119.47,45.49a4,4,0,0,0-2.86-.77,1.62,1.62,0,0,1,2.86.77Z" style="fill:#452d1b"/><path d="M126.71,44.92a3.27,3.27,0,0,1,2.2,1.33,1.55,1.55,0,0,0-.71-1.19A1.85,1.85,0,0,0,126.71,44.92Z" style="fill:#a3805a"/><path d="M118.66,43.1a2.33,2.33,0,0,0-2.94-.12,1.13,1.13,0,0,1,1.38-.79A3.2,3.2,0,0,1,118.66,43.1Z" style="fill:#a3805a"/><path d="M124.25,33.31a3.18,3.18,0,0,0-2.93,1.52,1.64,1.64,0,0,1,.87-1.58,8.41,8.41,0,0,0-6.06,4A9.53,9.53,0,0,0,115,44.5L113.7,43c-.19,2.66,1.23,6.55,2.7,8.77-1-.88-1-.32-2-1.2,6.41,8.29,4.62,9.89,4,13.84-1.19-.12-4.11,3.52-4.11,3.52-.3-3.9-2-6.95-4.4-10,0,1.11-.1,1.24.52,2.16-4.46-3.16-5-11-4-15.21a9.22,9.22,0,0,0-1,3.05c-.82-4.54,1.27-8.77,3.27-12.14a3.19,3.19,0,0,0-2.41,2c.68-3.16,4-8.84,8.4-9-1.89,0-1.34,0-3.23-.05,2.17-2.09,8.16-4.23,12.51-2.14a5.81,5.81,0,0,0-2.54-2.82,5.48,5.48,0,0,1,4,2.6A2.39,2.39,0,0,1,127,24.17a4.39,4.39,0,0,0-.1,3,7.65,7.65,0,0,1,5.93-.47,9.8,9.8,0,0,0-3,1.76,9.08,9.08,0,0,1,7.73.59,5.2,5.2,0,0,0-3.21,1.65c1.88-.25,3.64,1,5,2.29,4.2,4.19,3.38,8.19,3.23,12-.46-.52-1-.95-1.41-1.47,1.16,2,.59,6.52-.14,8.76a25.72,25.72,0,0,1-3.35,6.18,2.5,2.5,0,0,0,.12-2.26c-.19,2.21-2.68,3.65-4.43,5s-3.89,3.12-4.38,5.27a7.67,7.67,0,0,1,0-4c-1.07,2.55-3.94,4-5.7,4.69-1,.22-4.52,1.5-4.89,2.47a3,3,0,0,1,.94-2.12c-2.67.6-4.75,3.87-6.14,6.16a13.84,13.84,0,0,1,3.24-11.11c4.1-4.72,11-8.05,11-8.05s-.27-.48-1.93-.17c2.41-1.32,6.39-5.86,6.92-11.37-.79.33-1,.8-1.75,1.14a8.89,8.89,0,0,0-.48-7.33c-.17.63-.4,1.51-.57,2.41a17.79,17.79,0,0,0-2.48-4.65,4.87,4.87,0,0,0-1.37-1.27C125.13,33,124.39,33,124.25,33.31Z" style="fill:#dcb680"/><path d="M118.56,51.66A6.2,6.2,0,0,0,120.14,53a4.69,4.69,0,0,0,1,.34,1.7,1.7,0,0,0,1.41-.53,5.64,5.64,0,0,0,1.13-1.26,3.64,3.64,0,0,1-2.64.67A4.7,4.7,0,0,1,118.56,51.66Z" style="fill:#664527"/><path d="M119.48,48.51a2.85,2.85,0,0,0,1.34,1.25A1.71,1.71,0,0,0,122,49.7a2.48,2.48,0,0,0,.88-.69,1.62,1.62,0,0,1-.9,1.2,1.59,1.59,0,0,1-1.87-.42A2.17,2.17,0,0,1,119.48,48.51Z" style="fill:#a3805a"/><path d="M113.27,74.24c-.64-1.88-3.55-11-4-11.95a2.94,2.94,0,0,0-1.41-1.21.35.35,0,0,1-.22-.37.4.4,0,0,1,.27-.35.54.54,0,0,0,.35-.67.52.52,0,0,0-.3-.33.35.35,0,0,1-.22-.24.36.36,0,0,1,.05-.33.52.52,0,0,0,.06-.44.53.53,0,0,0-.68-.35L93.78,62.07l-2.34.71a.54.54,0,0,0-.37.67.49.49,0,0,0,.3.33.39.39,0,0,1,.22.25.33.33,0,0,1,0,.32.55.55,0,0,0-.06.45.53.53,0,0,0,.66.35.41.41,0,0,1,.42.14.39.39,0,0,1,0,.44,2.84,2.84,0,0,0-.5,1.79c.14,1,2.76,10.06,3.26,11.93.42,1.61.83,3,1,3.35.9,2.38,4,2,5,1.89a40.78,40.78,0,0,0,4.82-1.11l.22-.07.22-.07a38.82,38.82,0,0,0,4.63-1.77,7.65,7.65,0,0,0,1.39-.8,3.43,3.43,0,0,0,1.69-3.54C114.18,77,113.77,75.72,113.27,74.24Z" style="fill:#e94d59"/><path d="M109.42,62.69a3,3,0,0,0-1.13-1.18,1.24,1.24,0,0,0-.15-1.73,1.24,1.24,0,0,0-1.57-1.51L92,62.71a1.24,1.24,0,0,0-.84,1.55,1.14,1.14,0,0,0,.38.58,1.16,1.16,0,0,0,0,.69,1.27,1.27,0,0,0,.84.83A2.89,2.89,0,0,0,92.1,68c.24,1.84,3.74,13.84,4,14.54s1.43,2.93,5.45,2.25a35.65,35.65,0,0,0,4.57-1.05l.2-.06.21-.06a37.29,37.29,0,0,0,4.38-1.68c3.72-1.68,3.45-4.18,3.27-4.91S110.24,64.35,109.42,62.69Zm4.52,14.47c.59,2.51-2.15,4-3,4.36a37.3,37.3,0,0,1-4.54,1.74l-.22.07-.21.06a36.67,36.67,0,0,1-4.74,1.09c-.92.15-4,.46-4.91-2C96,81.79,92.3,69,92,67.09a2.9,2.9,0,0,1,.48-1.8.39.39,0,0,0,0-.44.4.4,0,0,0-.42-.15.52.52,0,0,1-.65-.36.52.52,0,0,1,.06-.45.39.39,0,0,0,0-.33.35.35,0,0,0-.22-.24A.59.59,0,0,1,91,63a.55.55,0,0,1,.36-.68l15.42-4.69a.53.53,0,0,1,.67.36.55.55,0,0,1-.06.45.41.41,0,0,0,0,.33.4.4,0,0,0,.22.24.54.54,0,0,1,0,1,.39.39,0,0,0-.26.35.38.38,0,0,0,.22.38,2.93,2.93,0,0,1,1.4,1.23C109.74,63.71,113.76,76.4,113.94,77.16Z" style="fill:#cb3f3e"/><path d="M91.38,64.85h0a1,1,0,0,0-.17,1,1,1,0,0,0,1.17.69l16-4.87a1,1,0,0,0,.59-1.23,1,1,0,0,0-.67-.69h0Z" style="fill:#352109"/><path d="M108.37,58.5c-.21-.7-.78-1.14-1.27-1l-16,4.87c-.49.14-.71.83-.5,1.52a1.52,1.52,0,0,0,.75.95l16.89-5.15A1.46,1.46,0,0,0,108.37,58.5Z" style="fill:#c5c3d0"/><path d="M92.65,63.85s2,0,15.8-4.81a1.12,1.12,0,0,1-.18.66L93.39,64.24A.91.91,0,0,1,92.65,63.85Z" style="fill:#b1b0bb"/><path d="M110.44,62.63a2.91,2.91,0,0,0-2.09-.61l-.22.06-7.76,2.37h0l-7.76,2.36-.22.07s-1.26.7-1.39,1.67,3.47,1.32,4.69-.3c0,0,3.45,2.72,5.28-1.7h0c4,2.65,5.44-1.89,5.44-1.89C108.32,65.33,111.09,63.37,110.44,62.63Z" style="fill:#b1b0bb"/><path d="M110.44,62.24a2.89,2.89,0,0,0-2.09-.62l-.22.07-7.76,2.36h0l-7.76,2.37-.22.06s-1.26.71-1.39,1.68,3.47,1.32,4.69-.31c0,0,3.45,2.73,5.28-1.69h0c4,2.65,5.44-1.89,5.44-1.89C108.32,64.94,111.09,63,110.44,62.24Z" style="fill:#c5c3d0"/><ellipse cx="103.08" cy="74.14" rx="5.55" ry="2.93" transform="translate(-16.45 31.29) rotate(-16)" style="fill:#fff"/><path d="M101.25,77.57a7.1,7.1,0,0,1-1.41-.14,2.74,2.74,0,0,1-2.3-1.7c-.49-1.7,1.57-3.72,4.67-4.61a8.64,8.64,0,0,1,4.11-.26,2.73,2.73,0,0,1,2.3,1.69h0c.49,1.7-1.56,3.73-4.67,4.62A10,10,0,0,1,101.25,77.57Zm3.66-6.42a9.54,9.54,0,0,0-2.58.38c-2.82.81-4.79,2.64-4.37,4.08.19.67.89,1.17,2,1.4a8.43,8.43,0,0,0,3.9-.26c2.83-.81,4.79-2.64,4.38-4.08a2.35,2.35,0,0,0-2-1.39A6.32,6.32,0,0,0,104.91,71.15Z" style="fill:#fac962"/><path d="M100.05,74.26a.09.09,0,0,1,0,0l0,0a.66.66,0,0,0,0,.11,5.82,5.82,0,0,0,.18.85c.05.16.1.24.16.24l0,.06a.11.11,0,0,1-.06.07c-.07,0-.15,0-.22-.14a.85.85,0,0,1-.11-.26c-.06-.21-.11-.39-.14-.53,0,.17,0,.35,0,.52s0,.43-.12.45-.17,0-.28-.16-.23-.33-.41-.62c0,.1.05.19.08.29a2.56,2.56,0,0,0,.14.44s0,0,0,.07l0,.08s0,.08-.09.1-.17-.08-.24-.32-.07-.25-.11-.44-.08-.35-.11-.45l0,0,0,0c0-.08,0-.13.18-.17a.23.23,0,0,1,.13,0,2.05,2.05,0,0,0,.08.19,3.88,3.88,0,0,0,.23.46c.14.24.24.35.29.34a.16.16,0,0,0,0-.08,2.36,2.36,0,0,0,0-.38l0-.38a1.86,1.86,0,0,1,0-.26.18.18,0,0,1,.15-.18h.12C100,74.22,100,74.23,100.05,74.26Z" style="fill:#be1622"/><path d="M101.52,75.12v.07a.1.1,0,0,1,0,0h0a1,1,0,0,0-.24.13,1.21,1.21,0,0,1-.25.13c-.22.06-.38-.07-.47-.41a6.53,6.53,0,0,1-.16-.64v0a.08.08,0,0,0,0,0,.08.08,0,0,1,0,0,.1.1,0,0,1,.07-.14l.3-.16a1.4,1.4,0,0,1,.3-.12.14.14,0,0,1,.11,0,.08.08,0,0,1,.09.06s0,.09-.08.1H101a1.85,1.85,0,0,0-.44.21h0s0,0,0,0,0,.2.09.39a.05.05,0,0,0,0,0l.15-.07a.56.56,0,0,1,.15-.08h.15l0,.08s0,.05,0,.06l-.07,0h0l-.16.07-.17.08,0,0v0a.35.35,0,0,0,0,.06,1.45,1.45,0,0,0,.06.19q.06.12.15.09a.87.87,0,0,0,.22-.11,1,1,0,0,1,.22-.12A.21.21,0,0,1,101.52,75.12Z" style="fill:#be1622"/><path d="M101.64,73.85a.18.18,0,0,1,0,.06.55.55,0,0,1,0,.09c.06.32.13.6.19.83a.64.64,0,0,0,.06.14.77.77,0,0,0,.1.12h0s0,.05-.09.07h0c-.07,0-.13,0-.18-.14a4.19,4.19,0,0,1-.19-.55c0-.06,0-.15-.07-.26s0-.2-.07-.26a.15.15,0,0,1,0-.11.18.18,0,0,1,.09-.07h.09A.1.1,0,0,1,101.64,73.85Z" style="fill:#be1622"/><path d="M103.05,74.68a.17.17,0,0,1,0,.07s0,0,0,0h0a1.21,1.21,0,0,0-.25.13,1,1,0,0,1-.24.13c-.22.06-.38-.08-.48-.41s-.13-.48-.16-.64v0a.06.06,0,0,0,0,0l0,0a.11.11,0,0,1,.07-.14l.31-.16a2.7,2.7,0,0,1,.3-.13h.11a.09.09,0,0,1,.08.07s0,.08-.08.1,0,0,0,0h0a1.69,1.69,0,0,0-.44.21h0s0,0,0,0a1.6,1.6,0,0,0,.09.39s0,0,.05,0a.76.76,0,0,0,.15-.08l.14-.07h.15l0,.08a0,0,0,0,1,0,.06l-.06,0a0,0,0,0,0,0,0,1,1,0,0,0-.17.07l-.16.08h0a0,0,0,0,0,0,0s0,0,0,.06a1.45,1.45,0,0,0,.06.19q0,.12.15.09a.71.71,0,0,0,.21-.11,1,1,0,0,1,.23-.12A.19.19,0,0,1,103.05,74.68Z" style="fill:#be1622"/><path d="M104.59,74c0,.07,0,.11-.06.13a.33.33,0,0,0,.08.11.1.1,0,0,1,0,.09.18.18,0,0,1-.07,0,.17.17,0,0,1-.1,0,.34.34,0,0,1-.06-.12.43.43,0,0,1,0,0,.42.42,0,0,0,0-.06s0,0-.06,0l-.27.09a.64.64,0,0,0-.24.11.5.5,0,0,0,0,.22s0,.06-.06.06a.12.12,0,0,1-.1,0,.09.09,0,0,1-.07-.06,1,1,0,0,1,0-.13V74c0-.56.13-.86.25-.89s.25.07.39.32a3.11,3.11,0,0,1,.24.53h.08A.08.08,0,0,1,104.59,74Zm-.32,0c-.2-.46-.32-.69-.37-.67s-.07.14-.1.4,0,.34,0,.47l.19-.09A2.1,2.1,0,0,1,104.27,74Z" style="fill:#be1622"/><path d="M105.72,73.63a.46.46,0,0,1-.07.37.51.51,0,0,1-.3.23.46.46,0,0,1-.45-.09.92.92,0,0,1-.23-.42,1.18,1.18,0,0,1,0-.56.47.47,0,0,1,.32-.4.49.49,0,0,1,.24,0,.32.32,0,0,1,.19.15l0,.09c.06.18,0,.28,0,.31a.11.11,0,0,1-.08,0,.12.12,0,0,1,0,0,.2.2,0,0,1,0-.07.08.08,0,0,0,0-.07.34.34,0,0,0-.07-.15.19.19,0,0,0-.17,0,.26.26,0,0,0-.16.2.63.63,0,0,0,0,.27,1.72,1.72,0,0,0,0,.26.91.91,0,0,0,.11.27.29.29,0,0,0,.25.13h.08a.24.24,0,0,0,.14-.11.48.48,0,0,0,.08-.16.57.57,0,0,0,0-.12h0a.65.65,0,0,0-.22.1l0,0s0,0,0,0a.1.1,0,0,1-.09,0,.15.15,0,0,1-.06-.09.09.09,0,0,1,0-.09l.18-.09.21-.08C105.6,73.44,105.68,73.49,105.72,73.63Z" style="fill:#be1622"/><path d="M106.91,73.57a.08.08,0,0,1,0,.07s0,0,0,0h-.05a.88.88,0,0,0-.24.12,1,1,0,0,1-.24.13c-.23.07-.39-.07-.48-.41a6.47,6.47,0,0,1-.16-.63v0s0,0,0,0,0,0,0,0a.1.1,0,0,1,.07-.14l.3-.15a1.57,1.57,0,0,1,.3-.13.25.25,0,0,1,.12,0,.1.1,0,0,1,.08.06s0,.09-.08.11h-.08a2.33,2.33,0,0,0-.43.21h0s0,0,0,0a2.21,2.21,0,0,0,.08.4,0,0,0,0,0,.06,0,.59.59,0,0,0,.14-.07l.15-.07a.35.35,0,0,1,.15,0,.25.25,0,0,1,0,.08s0,.06,0,.06l-.06,0h0l-.17.07-.16.09h0s0,0,0,0,0,0,0,.06,0,.17.06.19.09.1.15.08a.73.73,0,0,0,.22-.11,1,1,0,0,1,.23-.12C106.8,73.53,106.87,73.53,106.91,73.57Z" style="fill:#be1622"/><path d="M101.08,76.7a2.75,2.75,0,1,1-3.9-.08A2.76,2.76,0,0,1,101.08,76.7Z" style="fill:#ffe00a"/><path d="M99,75.85a2.76,2.76,0,0,1,1.71,4.74,2.71,2.71,0,0,1-1.82.77A2.76,2.76,0,1,0,99,75.85Z" style="fill:#f7b92c"/><path d="M99.84,79.51a.82.82,0,0,1-.87.17.06.06,0,0,1,0-.08.05.05,0,0,1,.08,0,.71.71,0,0,0,.92-.89,0,0,0,0,1,0-.07.06.06,0,0,1,.08,0A.82.82,0,0,1,99.84,79.51Z" style="fill:#3e3e5d"/><path d="M97.94,78.84a.59.59,0,0,1,.62-.12,0,0,0,0,1,0,.06,0,0,0,0,1-.06,0,.51.51,0,0,0-.53.1.5.5,0,0,0-.12.53s0,0,0,0a0,0,0,0,1,0,0A.59.59,0,0,1,97.94,78.84Z" style="fill:#3e3e5d"/><path d="M99.4,77.44a.57.57,0,0,1,.62-.12s0,0,0,.05,0,0-.06,0a.49.49,0,0,0-.53.1.48.48,0,0,0-.12.52,0,0,0,0,1,0,.06s0,0,0,0A.58.58,0,0,1,99.4,77.44Z" style="fill:#3e3e5d"/><path d="M103.28,78.52a1.17,1.17,0,1,1-2.18-.84,1.16,1.16,0,0,1,1.51-.67A1.17,1.17,0,0,1,103.28,78.52Z" style="fill:#ffe00a"/><path d="M103.23,77.57a1.16,1.16,0,0,1-1.51,1.5,1.11,1.11,0,0,1-.62-.56,1.16,1.16,0,0,0,2.18,0A1.2,1.2,0,0,0,103.23,77.57Z" style="fill:#f7b92c"/><path d="M102,78.54a.32.32,0,0,1-.22-.3s0,0,0,0a0,0,0,0,1,0,0,.29.29,0,0,0,.5.19,0,0,0,0,1,0,0,0,0,0,0,1,0,0A.36.36,0,0,1,102,78.54Z" style="fill:#3e3e5d"/><path d="M101.89,77.7a.24.24,0,0,1,.16.21,0,0,0,0,1,0,0s0,0,0,0a.19.19,0,0,0-.13-.18.2.2,0,0,0-.22,0h0a0,0,0,0,1,0,0A.23.23,0,0,1,101.89,77.7Z" style="fill:#3e3e5d"/><path d="M102.69,78a.23.23,0,0,1,.16.21,0,0,0,0,1,0,0,0,0,0,0,1,0,0,.19.19,0,0,0-.13-.18.2.2,0,0,0-.22,0h0s0,0,0,0A.23.23,0,0,1,102.69,78Z" style="fill:#3e3e5d"/><path d="M109.49,69.75a2.44,2.44,0,1,1-2-2.8A2.44,2.44,0,0,1,109.49,69.75Z" style="fill:#ffe00a"/><path d="M109,67.83a2.48,2.48,0,0,1,.35,1.72A2.44,2.44,0,0,1,105,70.67a2.44,2.44,0,0,0,4.46-.92A2.41,2.41,0,0,0,109,67.83Z" style="fill:#f7b92c"/><path d="M106.84,70.36a.73.73,0,0,1-.58-.53.06.06,0,0,1,0-.07s.06,0,.06,0a.64.64,0,0,0,.5.45.63.63,0,0,0,.62-.26,0,0,0,0,1,.07,0,0,0,0,0,1,0,.07A.73.73,0,0,1,106.84,70.36Z" style="fill:#3e3e5d"/><path d="M106.31,68.66a.5.5,0,0,1,.41.37,0,0,0,0,1,0,0s0,0,0,0a.44.44,0,0,0-.35-.32.47.47,0,0,0-.44.19s0,0,0,0,0,0,0-.05A.51.51,0,0,1,106.31,68.66Z" style="fill:#3e3e5d"/><path d="M108.08,69a.52.52,0,0,1,.41.38s0,0,0,0,0,0,0,0a.45.45,0,0,0-.36-.32.42.42,0,0,0-.43.19s0,0,0,0,0,0,0-.06A.55.55,0,0,1,108.08,69Z" style="fill:#3e3e5d"/><path d="M110.69,84.44c-2,.48-6.6,1-7.14-3.9s1.75-3.32,2.84-3.08a4.6,4.6,0,0,0,3.45-.53Z" style="fill:#5e3e21"/><path d="M136.48,67.28c.52.77.62,1.12.6,1.36a6.51,6.51,0,0,1,0,.77,4.14,4.14,0,0,1-.3,1.29,5.3,5.3,0,0,1-1.24,2c-.5.56-1,1.11-1.56,1.66l-.8.82-.83.8a42.29,42.29,0,0,1-7.4,5.69,36.14,36.14,0,0,1-8.66,3.8c-.75.22-1.52.4-2.29.56s-1.53.3-2.3.43a6.8,6.8,0,0,1-2.34.12,4.18,4.18,0,0,1-.61-.15,5.77,5.77,0,0,1-.61-.23,2.1,2.1,0,0,1-.63-.51l-.34-.42a.8.8,0,0,1-.18-.34l0-.07,0-.12-.07-.24,0-.14,0-.19-.07-.38-.44-4V78.62a.83.83,0,0,1,.08-.37l.2-.49a2,2,0,0,1,.41-.64,7.15,7.15,0,0,1,.89-.67,5.92,5.92,0,0,1,1.85-.58c.62-.14,1.25-.27,1.86-.44l.91-.23.91-.24c2.43-.66,4.84-1.32,7.23-2.19a56,56,0,0,0,7.12-3.1l.88-.46.86-.5c.57-.34,1.16-.67,1.7-1.06a4.75,4.75,0,0,1,.88-.52c.32-.13.68-.24,1-.35a4.07,4.07,0,0,1,1.23-.19l.75,0a2.75,2.75,0,0,1,1.37.63Z" style="fill:#773a28"/><path d="M90.64,63.94s-1.15,4.38,1,5.43a1.67,1.67,0,0,0,1.6,0,2.23,2.23,0,0,0,1.19-1.7,4.52,4.52,0,0,0-.3-2.28A2.32,2.32,0,0,0,90.64,63.94Z" style="fill:#5e3e21"/></svg>