<svg viewBox="0 0 189 80" xmlns="http://www.w3.org/2000/svg"><path d="M17.465 65.205c0 .157.042.307.118.438.287-.297.65-.511 1.062-.626a1.44 1.44 0 011.552-1.039A1.84 1.84 0 0019 65.074a.867.867 0 00-.444 1.297 2.354 2.354 0 011.129-.7 1.502 1.502 0 011.31-1.198 1.588 1.588 0 00-.832 2.122.863.863 0 011.113-.585 1.15 1.15 0 001.482-1.447.729.729 0 01.398 1.108 1.46 1.46 0 001.709-1.268c.376-.201.704-.476.991-.82l.198.977a.329.329 0 01-.01.191.359.359 0 01-.095.173l.822-.85a.356.356 0 00.099-.17.414.414 0 00.01-.197l-.246-1.189a.44.44 0 01.01-.195.394.394 0 01.098-.172l.65-.665a.394.394 0 00-.098.173.4.4 0 00-.01.195l.243 1.191a.398.398 0 01-.102.364l.733-.766a.332.332 0 00.099-.166.35.35 0 00.01-.198l-.243-1.189a.414.414 0 01.006-.198.416.416 0 01.099-.17l.65-.66a.427.427 0 00-.099.166.417.417 0 00-.006.198l.242 1.191a.366.366 0 01-.01.195.384.384 0 01-.092.17l.737-.767a.409.409 0 00.102-.368l-.118-.581c-.121-.655.551-1.412 1.09-1.489a.874.874 0 00.102-.4c0-.667-.79-1.21-1.772-1.21-.475 0-.912.131-1.23.345.127.38.155.764-1.097.943-.998.143-1.875.335-2.538.9-1.026.87-.943 2.039-1.527 2.476.262.064.59.064.944-.012a2.49 2.49 0 00.609-.214c-.109.207-.357.412-.686.552-.108.412-.471.805-.965.984-.31.122-.619.131-.877.055l-1.199-.345a1.608 1.608 0 00-.465-.068c-.883 0-1.613.684-1.721 1.566a.867.867 0 00-.737.856zm11.868-47.58a8.98 8.98 0 012.368-1.67 1.283 1.283 0 01-.041-.317v-.006c-3.666.604-6.968 2.492-9.949 2.476-.835-.003-1.488-.326-1.594-.856a.772.772 0 01.004-.32.46.46 0 01.45-.364.459.459 0 01.33.776c.087.007.176.01.268.01.233 0 .46-.026.657-.08a.759.759 0 00-.198-1.489c-.022 0-.044 0-.07.004a.88.88 0 011.224.811c0 .022-.003.048-.003.077 1.31-.032 2.786-1.23 3.108-1.687a5.82 5.82 0 01-1.32.147 5.829 5.829 0 01-1.488-.186c-.641-.172-1.275-.265-1.763-.265-1.607 0-2.91 1.048-2.91 2.342 0 1.074.886 2.01 2.107 2.259 2.783.568 6.053-1.086 8.82-1.662zM13.646 21.44c.077-.39.102-.773.09-1.14l-.351.412a3.101 3.101 0 00-.163-.345c-.035-.067-.07-.112-.117-.122a.298.298 0 01-.096.039c-.045.012-.105.01-.144.01-.035 0-.098.002-.143-.01-.038-.007-.07-.026-.096-.039-.047.01-.076.055-.118.122-.044.08-.092.182-.162.345l-.35-.412c-.014.367.015.75.092 1.14.258-.057.526-.077.777-.077.255 0 .523.02.781.077zm.157 1.058c.041-.445-.466-.604-.938-.604-.471 0-.975.16-.937.604.048.543.555.284.937.287.383-.003.89.256.938-.287zm1.348-3.211c-.092.029-.143.083-.153.179-.057.524-.268.738-.606.856-.006.527-.08.926-.223 1.422.405.846.096 1.434-.232 1.562-.31.118-.715-.045-1.068-.045-.354 0-.762.163-1.071.045-.329-.128-.638-.716-.236-1.562-.14-.496-.217-.895-.217-1.422-.341-.118-.555-.332-.609-.856-.013-.096-.06-.15-.153-.18-1.339-.367-1.463-2.031-.787-2.5-.06.744-.125 1.795 1.396 1.935-.026.876.354 1.109.743 1.109.315.003.497-.1.577-.14.283-.15.089-.384.019-.451a.763.763 0 01-.249-.7c.006-.045.026-.07.07-.07h1.03c.041 0 .06.025.07.07a.785.785 0 01-.245.7c-.074.067-.268.3.012.45.08.042.262.144.584.14.385 0 .765-.232.74-1.108 1.52-.14 1.456-1.191 1.395-1.936.676.47.549 2.134-.787 2.502zm.411-2.904c0 .383-.28.808-.596.808h-.29c.07.09.115.204.115.326a.51.51 0 11-1.02 0c0-.122.041-.237.115-.326h-.303c-.106 0-.185.042-.249.163-.022-.163-.045-.332-.006-.447.05-.154.172-.243.29-.243h1.339a.75.75 0 00.605-.281zm-.175-.636h-.469a.657.657 0 01-.529-.252l-.535-.7c-.09-.109-.16-.189-.271-.24h.526c.159 0 .302.067.41.208l.556.712c.127.15.162.253.312.272zm-2.442-1.153l.682.961c.109.16.21.246.357.307h-.628a.527.527 0 01-.487-.284l-.54-.828c-.203-.31-.286-.386-.522-.47h.58c.23 0 .443.15.558.314zm-1.55.169l.559.712c.124.15.162.253.309.272h-.469a.657.657 0 01-.529-.252l-.535-.7c-.086-.109-.156-.189-.271-.24h.529c.156 0 .296.067.408.208zm-.334 2.428h-.296c-.316 0-.596-.425-.596-.808.175.195.36.28.605.28h1.342c.118 0 .24.09.29.244.035.115.016.284-.003.447-.067-.121-.146-.163-.252-.163h-.302c.07.09.114.204.114.326a.51.51 0 11-1.023 0c0-.122.045-.237.121-.326zm-1.654 6.4l.16-.317a.392.392 0 00-.004-.384l.443.806a.438.438 0 01.051.188.377.377 0 01-.045.192l-.038.08c-.274.53-.529 1.527-.245 2.105-.66-.246-.877-.824-.807-1.307-1.24-1.179-1.552-2.373-.67-3.373l.457-.537a.334.334 0 00.089-.173.369.369 0 00-.003-.195l.239.882a.418.418 0 01-.086.377l-.137.16c-.462.543-.341 1.275.385 1.933a3.73 3.73 0 01.21-.438zm30.433 3.325a1.03 1.03 0 00.073-.387c0-.556-.45-1.01-1.001-1.01h-1.02a.352.352 0 01-.188-.047.375.375 0 01-.147-.128l-.51-.754c.038.058.09.1.147.128a.386.386 0 00.191.048h1.339a.411.411 0 01.338.179l-.615-.901a.37.37 0 00-.15-.131.374.374 0 00-.188-.048h-1.326a.348.348 0 01-.192-.048.378.378 0 01-.146-.128l-.58-.856c.038.06.092.102.146.134a.424.424 0 00.191.048l1.333-.003c.07 0 .134.019.191.048.06.029.108.076.147.13l-.615-.903a.444.444 0 00-.147-.131.408.408 0 00-.188-.045H35.86a.435.435 0 01-.19-.048.383.383 0 01-.148-.131l-.714-1.048c1.444-.172 2.605-.952 2.834-2.032.3-1.396-1.084-2.754-3.092-3.048a.699.699 0 01-.143-1.345 1.773 1.773 0 00-.708-.143c-.89 0-1.607.635-1.607 1.425 0 .14.026.278.067.405-.994.432-1.9 1.195-2.594 2.02a9 9 0 012.323-.304 1.09 1.09 0 011.084-1.204h.016c-.408.178-.612.575-.612.833 0 .313.255.569.564.569a.552.552 0 00.326-.109.778.778 0 01.86-.997.881.881 0 00-.503.796c0 .482.388.872.873.872.051 0 .099-.003.15-.006a.625.625 0 01.606-.79c.344 0 .624.279.624.627 0 .754-.835.824-1.444.648-1.734-.501-3.36-.725-4.931-.504-2.015.284-5.317 1.648-8.82 1.533a10.73 10.73 0 01-2.503-.39c.105.115.176.199.22.266.341.53.46 1.089.156 1.789.01-.783-.637-1.428-1.179-1.825-.217-.156-.303-.31-.268-.514l.16-.9a.41.41 0 00.118.361l.334.328c.128-.91-.076-1.763-.621-2.556.242-.629.274-1.322.114-1.977-.067.495-.306.71-.535.85-.427.268-.497.722-.277 1.019-.357-.182-.858-.85-.568-1.24.31-.425 1.157-.223 1.262-.949-.551-.175-1.118-.05-1.29-.006-.326-.377-.756-.562-1.298-.556-.427-.39-.972-.55-1.642-.482-.666-.067-1.214.092-1.638.482-.539-.006-.972.179-1.3.556-.173-.045-.74-.17-1.292.006.106.726.954.524 1.263.95.29.389-.204 1.057-.568 1.239.223-.297.15-.751-.277-1.02-.226-.14-.469-.354-.536-.85a3.376 3.376 0 00.115 1.978c-.542.793-.749 1.646-.621 2.556l.338-.329a.403.403 0 00.102-.17.39.39 0 00.012-.19l.163.9c.035.205-.054.358-.271.514-.542.397-1.186 1.042-1.18 1.825-.3-.7-.178-1.281.16-1.79-1.027-.555-1.81-1.472-1.957-1.638-.31-.361-.268-.825.016-1.23.538-.78.669-1.607-.013-2.176a1.063 1.063 0 00-.845-1.17.907.907 0 01-.041 1.036.757.757 0 01-.112 1.032c.016-.08.022-.163.022-.246 0-.53-.325-.978-.771-1.1a.827.827 0 00-.816-.676.834.834 0 00-.6.255c.316.022.571.272.603.585a1.12 1.12 0 00-.35.45h.022a.982.982 0 01.966 1.166 1.074 1.074 0 00-.306-.588c-.303-.297-.746-.36-1.154-.207a.831.831 0 00-1.355.076.945.945 0 01.73.397c-.427.546-.434 1.303.003 1.731.297.29.72.358 1.116.22a.263.263 0 01.347.246.264.264 0 01-.264.266.258.258 0 01-.166-.06.577.577 0 00-.944.44c0 .026 0 .051.004.073a.584.584 0 01-.17.026.548.548 0 01-.398-.166.772.772 0 00.685.968 1.206 1.206 0 001.817.537.533.533 0 01.835.434.54.54 0 01-.414.518l-.411.09a.413.413 0 01-.367-.1l.94.895c.052.047.112.08.173.095.06.02.127.023.198.007l.771-.173a.364.364 0 01.194.007.386.386 0 01.173.096l.647.616a.386.386 0 00-.172-.096.364.364 0 00-.195-.006l-.771.172a.456.456 0 01-.198-.006.424.424 0 01-.169-.096l.86.821a.4.4 0 00.367.099l.775-.166a.377.377 0 01.198.003.44.44 0 01.172.096l.644.617a.442.442 0 00-.173-.1.442.442 0 00-.194-.002l-.771.172a.457.457 0 01-.198-.006.382.382 0 01-.169-.1l.86.822c.052.048.11.08.173.099.064.016.127.019.197.006l.931-.204a68.702 68.702 0 00-2.891 1.74c-.602.38-1.265.454-2.024.16-.408-.156-.851-.182-1.129-.134a1.244 1.244 0 00-.854.591c.144-.057.297-.086.46-.086.337 0 .643.134.866.358-.35-.15-.79-.163-1.217-.01-.762.278-1.205 1-1.033 1.646a.757.757 0 00-.258 1.252.78.78 0 01.73-.607c.15.096.321.166.506.204.06-.095.131-.185.21-.258a1.261 1.261 0 011.419-1.438 1.258 1.258 0 00-.943 1.45c-.3.112-.51.4-.51.742 0 .191.067.37.185.508a1.408 1.408 0 011.118-.76 2.054 2.054 0 00.95.047.98.98 0 01.947-1.524c-.52.22-.835.671-.724 1.08.077.29.351.492.705.56a1.286 1.286 0 01-.169.6 1.258 1.258 0 001.036-.697c.536-.214.864-.677.755-1.092a.688.688 0 00-.258-.37c-.003-.017-.003-.03-.003-.042 0-.291.236-.524.52-.524.287 0 .522.233.522.524a.517.517 0 01-.137.348h1.084a.386.386 0 00.191-.048.383.383 0 00.147-.131l.698-1.035a.23.23 0 01.102-.09.28.28 0 01.128-.032h.854a.303.303 0 00-.13.032.261.261 0 00-.1.09l-.7 1.035a.375.375 0 01-.144.13.386.386 0 01-.192.049h1.301c.067 0 .13-.016.188-.048a.383.383 0 00.147-.131l.784-1.157c-.539-.297-.762-.817-.762-1.53 0-.44.249-.949.287-1.275l.016-.127a.445.445 0 00-.026-.195.759.759 0 00-.095-.17l.666.69c.051.042.09.1.112.157.025.06.035.128.025.198l-.02.157c-.028.274-.372.859.266 1.399.031.029.108.083.181.13l.453.285v-1.67h.631v1.859c.003.07.022.134.054.191a.44.44 0 00.134.144l.622.393a.416.416 0 00.38.029l1.137-.495a.404.404 0 01-.38-.032l-1.31-.834c.638-.54.294-1.125.262-1.4l-.02-.156a.453.453 0 01.026-.198.364.364 0 01.115-.157l.666-.69a.651.651 0 00-.095.17c-.026.06-.032.128-.026.195l.013.127c.054.467.526 1.31.134 1.78l1.195.76a.408.408 0 00.383.026l1.192-.518a.416.416 0 01-.383-.028l-1.29-.825c.28-.578.044-1.498-.23-2.028l-.042-.08a.373.373 0 01-.041-.192c0-.064.016-.131.051-.188l.443-.806a.377.377 0 00-.048.189.385.385 0 00.042.195l.162.316c.083.157.134.252.207.438.73-.658.89-1.29.428-1.83l-.14-.164a.452.452 0 01-.087-.175.38.38 0 01.003-.199l.24-.888a.351.351 0 00-.007.198.46.46 0 00.09.176l.455.53c.883 1.004.348 2.294-.707 3.278.06.189.111.543.067.735l1.402.891c.06.039.124.058.188.064a.423.423 0 00.195-.032l1.013-.44a.518.518 0 01-.188.035.473.473 0 01-.143-.923c3.873-1.18 7.433-4.227 9.773-4.218 1.138.003 2.06.69 2.06 1.547 0 .137-.023.271-.07.399-.498 1.406.229 2.744 2.148 3.262a.727.727 0 01.532.696.704.704 0 01-.029.185 1.563 1.563 0 001.415-.658c.33-.003.69-.022 1.056-.06.045.09.08.188.099.3.08.406-.058.77-.306.85-.44.144-.979-.029-1.396-.026a1.442 1.442 0 00-1.416 1.626.867.867 0 00-.411.742c0 .156.041.303.115.434.239-.284.558-.505.918-.633a1.3 1.3 0 011.61-1.207 1.437 1.437 0 00-1.256 1.431c0 .051.003.106.006.157a.617.617 0 00-.14.393c0 .188.086.357.216.472.134-.294.46-.571.874-.712a1.59 1.59 0 01.787-.067 1.133 1.133 0 011.246-1.47.892.892 0 00-.395 1.614l-.003.05c0 .25.115.467.29.608a.893.893 0 01.874-.72c.373 0 .675-.047.905-.12a.97.97 0 00.67-.917.959.959 0 00-.345-.738c.102-.483.083-1.275-.08-1.933.035-.003.067-.007.102-.007.271 0 .507.141.648.352zm-19.723 8.172a.77.77 0 01.004-.32.456.456 0 01.905.093.462.462 0 01-.124.317c.086.01.175.012.267.012.233 0 .46-.028.657-.083a.761.761 0 00.558-.731.756.756 0 00-.756-.758c-.022 0-.044 0-.07.004a.88.88 0 011.224.811c0 .022-.003.048-.003.074 1.31-.03 2.786-1.227 3.108-1.684a5.82 5.82 0 01-1.32.147 5.829 5.829 0 01-1.488-.185c-.641-.17-1.275-.266-1.763-.266-1.607 0-2.91 1.052-2.91 2.345 0 1.07.886 2.004 2.107 2.253 2.783.575 6.053-1.083 8.82-1.658a8.97 8.97 0 012.368-1.668 1.325 1.325 0 01-.041-.316v-.01c-3.666.607-6.968 2.492-9.949 2.476-.835-.003-1.488-.323-1.594-.853zm-.086-6.789c.058 0 .112.007.166.013A1.833 1.833 0 0019 29.408a.863.863 0 00-.444 1.297 2.36 2.36 0 011.129-.703 1.505 1.505 0 011.31-1.198 1.597 1.597 0 00-.832 2.124.863.863 0 011.113-.584 1.15 1.15 0 001.482-1.447.732.732 0 01.398 1.105c.086.02.17.026.258.026.75 0 1.365-.566 1.45-1.294.377-.202.705-.476.992-.818l.198.974a.349.349 0 01-.01.198.364.364 0 01-.095.17l.822-.85a.416.416 0 00.108-.367l-.245-1.192a.443.443 0 01.01-.195.402.402 0 01.098-.17l.65-.664a.412.412 0 00-.098.173.414.414 0 00-.01.198l.243 1.188a.379.379 0 01-.007.198.418.418 0 01-.095.166l.733-.766a.356.356 0 00.099-.17.347.347 0 00.01-.198l-.243-1.185a.414.414 0 01.006-.198.438.438 0 01.099-.17l.65-.664a.407.407 0 00-.105.367l.242 1.192a.367.367 0 01-.01.195.422.422 0 01-.092.17l.737-.767a.39.39 0 00.095-.17.379.379 0 00.007-.198l-.118-.578c-.121-.661.551-1.415 1.09-1.492a.874.874 0 00.102-.4c0-.667-.79-1.207-1.772-1.207-.475 0-.912.128-1.23.339.127.38.155.766-1.097.945-.998.14-1.875.336-2.538.901-1.026.87-.943 2.035-1.527 2.476.262.064.59.064.944-.013.223-.048.427-.121.609-.21-.109.207-.357.405-.686.549-.108.409-.471.802-.965.987-.31.115-.619.125-.877.054l-1.199-.351a1.723 1.723 0 00-.465-.064c-.883 0-1.613.684-1.721 1.566a.863.863 0 00-.619 1.29c.287-.294.65-.51 1.062-.623a1.443 1.443 0 011.386-1.05zm-6.385 10.974c.077-.393.102-.773.09-1.137l-.351.409a3.412 3.412 0 00-.163-.345c-.035-.067-.07-.112-.117-.122a.24.24 0 01-.096.039c-.045.01-.105.01-.144.01-.035 0-.098 0-.143-.01a.261.261 0 01-.096-.039c-.047.01-.076.055-.118.122a4.303 4.303 0 00-.162.345l-.35-.41c-.014.365.015.745.092 1.138a3.82 3.82 0 01.777-.076c.255 0 .523.022.781.076zm.157 1.058c.041-.444-.466-.604-.938-.604-.471 0-.975.16-.937.604.048.543.555.284.937.287.383-.003.89.256.938-.287zm1.348-3.208c-.092.026-.143.077-.153.176-.057.524-.268.738-.606.856-.006.527-.08.93-.223 1.425.405.843.096 1.431-.232 1.559-.31.118-.715-.042-1.068-.042-.354 0-.762.16-1.071.042-.329-.128-.638-.716-.236-1.56-.14-.494-.217-.897-.217-1.424-.341-.118-.555-.332-.609-.856-.013-.1-.06-.15-.153-.176-1.339-.367-1.463-2.035-.787-2.505-.06.745-.125 1.8 1.396 1.936-.026.876.354 1.112.743 1.112.315 0 .497-.102.577-.147.283-.147.089-.38.019-.447a.76.76 0 01-.249-.696c.006-.052.026-.074.07-.074h1.03c.041 0 .06.022.07.074a.782.782 0 01-.245.696c-.074.067-.268.3.012.447.08.045.262.147.584.147.385 0 .765-.236.74-1.112 1.52-.137 1.456-1.191 1.395-1.936.676.47.549 2.138-.787 2.505zm.411-2.907c0 .383-.28.808-.596.808h-.29a.512.512 0 01-.395.837.51.51 0 01-.51-.511c0-.125.041-.236.115-.326h-.303c-.106 0-.185.045-.249.166-.022-.166-.045-.335-.006-.45.05-.154.172-.246.29-.246h1.339a.747.747 0 00.605-.278zm-.175-.633h-.469c-.236 0-.392-.099-.529-.255l-.535-.7c-.09-.109-.16-.185-.271-.236h.526c.159 0 .302.067.41.207l.556.71c.127.15.162.252.312.274zm-2.442-1.156l.682.961c.109.16.21.246.357.307h-.628a.524.524 0 01-.487-.287l-.54-.821c-.203-.314-.286-.387-.522-.473h.58c.23 0 .443.147.558.313zm-1.55.172l.559.71c.124.15.162.252.309.274h-.469a.66.66 0 01-.529-.255l-.535-.7c-.086-.109-.156-.185-.271-.236h.529c.156 0 .296.067.408.207zm-.334 2.425h-.296c-.316 0-.596-.425-.596-.808.175.195.36.278.605.278h1.342c.118 0 .24.092.29.246.035.115.016.284-.003.45-.067-.121-.146-.166-.252-.166h-.302a.512.512 0 11-.908.326c0-.125.044-.236.12-.326zm-1.654 6.4l.16-.317a.384.384 0 00.047-.195.45.45 0 00-.051-.188l.443.801c.032.061.048.128.051.192a.377.377 0 01-.045.192l-.038.08c-.274.53-.529 1.527-.245 2.108-.66-.249-.877-.827-.807-1.31-1.24-1.178-1.552-2.373-.67-3.376l.457-.53a.37.37 0 00.089-.176.368.368 0 00-.003-.195l.239.885a.417.417 0 01-.086.373l-.137.163c-.462.54-.341 1.272.385 1.927.077-.182.125-.278.21-.435zm30.433 3.325c.047-.118.073-.25.073-.383 0-.56-.45-1.013-1.001-1.013h-1.02a.392.392 0 01-.335-.179l-.51-.75c.038.057.09.098.147.13a.384.384 0 00.191.045l1.339.003c.07 0 .134.016.191.048a.402.402 0 01.147.128l-.615-.901a.37.37 0 00-.15-.131.374.374 0 00-.188-.048l-1.326.003a.414.414 0 01-.338-.179l-.58-.853a.44.44 0 00.146.131.386.386 0 00.191.048h1.333c.07 0 .134.013.191.045.06.029.108.073.147.13l-.615-.9a.383.383 0 00-.147-.131.374.374 0 00-.188-.048H35.86a.411.411 0 01-.338-.179l-.714-1.048c1.444-.172 2.605-.952 2.834-2.032.3-1.396-1.084-2.753-3.092-3.047a.698.698 0 01-.143-1.345 1.774 1.774 0 00-.708-.147c-.89 0-1.607.639-1.607 1.428 0 .14.026.278.067.409-.994.428-1.9 1.191-2.594 2.016a9 9 0 012.323-.304 1.09 1.09 0 011.084-1.204h.016c-.408.179-.612.575-.612.837a.565.565 0 00.89.46.776.776 0 01.86-.997.874.874 0 00.37 1.668c.051 0 .099-.007.15-.013a.625.625 0 01.606-.786c.344 0 .624.278.624.626 0 .754-.835.824-1.444.649-1.734-.502-3.36-.726-4.931-.505-2.015.284-5.317 1.648-8.82 1.533a10.902 10.902 0 01-2.503-.39c.105.116.176.195.22.266.341.533.46 1.09.156 1.789.01-.783-.637-1.428-1.179-1.824-.217-.157-.303-.307-.268-.512l.16-.907a.4.4 0 00.118.364l.334.333c.128-.914-.076-1.767-.621-2.56a3.325 3.325 0 00.114-1.977c-.067.495-.306.71-.535.85-.427.268-.497.722-.277 1.022-.357-.182-.858-.853-.568-1.243.31-.425 1.157-.226 1.262-.948-.551-.176-1.118-.055-1.29-.007-.326-.374-.756-.559-1.298-.556-.427-.386-.972-.55-1.642-.482-.666-.067-1.214.096-1.638.482-.539-.003-.972.182-1.3.556-.173-.048-.74-.17-1.292.007.106.722.954.523 1.263.948.29.39-.204 1.061-.568 1.243.223-.3.15-.754-.277-1.022-.226-.14-.469-.355-.536-.85a3.376 3.376 0 00.115 1.978c-.542.792-.749 1.645-.621 2.559l.338-.333a.403.403 0 00.102-.169.4.4 0 00.012-.195l.163.907c.035.205-.054.355-.271.512-.542.396-1.186 1.041-1.18 1.824-.3-.7-.178-1.281.16-1.79-1.027-.558-1.81-1.469-1.957-1.638-.31-.361-.268-.824.016-1.227.538-.78.669-1.61-.013-2.179a1.065 1.065 0 00-.845-1.17c.09.142.144.31.144.49a.892.892 0 01-.185.55.75.75 0 01-.112 1.028c.016-.08.022-.163.022-.246 0-.53-.325-.974-.771-1.096a.83.83 0 00-1.415-.425c.315.023.57.269.602.585a1.12 1.12 0 00-.35.45h.022a.981.981 0 01.966 1.166 1.093 1.093 0 00-.306-.59c-.303-.298-.746-.358-1.154-.202a.824.824 0 00-.65-.316.833.833 0 00-.705.39.951.951 0 01.73.393c-.427.55-.434 1.306.003 1.734.297.291.72.355 1.116.22a.254.254 0 01.083-.015.264.264 0 110 .527.258.258 0 01-.166-.06.551.551 0 00-.367-.135.577.577 0 00-.573.649.571.571 0 01-.567-.137.77.77 0 00.685.965 1.206 1.206 0 001.816.536.528.528 0 01.303-.1c.29 0 .533.24.533.531a.538.538 0 01-.415.52l-.411.09a.377.377 0 01-.198-.006.36.36 0 01-.169-.096l.94.898c.052.048.112.08.173.099.06.016.127.019.198.003l.771-.173a.419.419 0 01.367.102l.647.617a.386.386 0 00-.172-.096.364.364 0 00-.195-.006l-.771.173a.395.395 0 01-.367-.105l.86.82c.052.048.11.08.173.1a.4.4 0 00.194.002l.775-.166a.377.377 0 01.198.003.44.44 0 01.172.096l.644.617a.4.4 0 00-.173-.096.441.441 0 00-.194-.006l-.771.172a.413.413 0 01-.367-.102l.86.818c.052.048.11.08.173.099.064.016.127.019.197.006l.931-.207a72.552 72.552 0 00-2.891 1.744c-.602.383-1.265.454-2.024.163a2.27 2.27 0 00-1.129-.134 1.24 1.24 0 00-.854.588 1.242 1.242 0 011.326.268c-.35-.15-.79-.16-1.217-.007-.762.278-1.205 1-1.033 1.646a.757.757 0 00-.488.709c0 .21.09.406.23.546a.779.779 0 01.73-.61c.15.096.321.17.506.208.06-.1.131-.189.21-.259-.006-.064-.012-.125-.012-.188 0-.7.564-1.262 1.26-1.262.056 0 .114 0 .171.006a1.267 1.267 0 00-.943 1.454.792.792 0 00-.325 1.249 1.415 1.415 0 011.118-.76c.185.047.38.082.58.082.128 0 .252-.012.37-.035a.96.96 0 01-.172-.55.983.983 0 011.12-.974c-.52.218-.836.668-.725 1.083.077.291.351.49.705.556a1.273 1.273 0 01-.169.598 1.245 1.245 0 001.036-.697c.536-.214.864-.674.755-1.09a.688.688 0 00-.258-.37c-.003-.019-.003-.028-.003-.041a.522.522 0 011.042 0 .531.531 0 01-.137.351h1.084c.067 0 .137-.019.191-.05a.338.338 0 00.147-.132l.698-1.038a.243.243 0 01.102-.086.246.246 0 01.128-.036h.854a.267.267 0 00-.13.036.28.28 0 00-.1.086l-.7 1.038a.33.33 0 01-.144.131.389.389 0 01-.192.051h1.301c.067 0 .13-.019.188-.05a.338.338 0 00.147-.132l.784-1.16c-.539-.294-.762-.811-.762-1.524 0-.444.249-.948.287-1.274l.016-.131a.445.445 0 00-.026-.195.677.677 0 00-.095-.166l.666.683a.426.426 0 01.137.358l-.02.16c-.028.272-.372.856.266 1.396.031.029.108.086.181.131l.453.284v-1.67h.631v1.859c.003.07.022.137.054.188a.386.386 0 00.134.144l.622.393c.057.038.12.06.185.064a.38.38 0 00.194-.032l1.138-.495a.368.368 0 01-.191.032.365.365 0 01-.188-.06l-1.31-.838c.637-.54.293-1.124.261-1.396l-.02-.16a.445.445 0 01.026-.195.402.402 0 01.115-.163l.666-.683a.588.588 0 00-.095.166.403.403 0 00-.026.195l.013.13c.054.464.526 1.304.134 1.777l1.195.757a.384.384 0 00.383.032l1.192-.517a.518.518 0 01-.195.032.426.426 0 01-.188-.064l-1.29-.825c.28-.575.044-1.498-.23-2.028l-.042-.08a.373.373 0 01-.041-.192c0-.064.016-.13.051-.192l.443-.801a.369.369 0 00-.048.188.378.378 0 00.042.195l.162.316c.083.157.134.253.207.435.73-.655.89-1.288.428-1.828l-.14-.166a.384.384 0 01-.087-.172.38.38 0 01.003-.198l.24-.885a.339.339 0 00-.007.195.46.46 0 00.09.175l.455.53c.883 1.004.348 2.294-.707 3.278.06.189.111.544.067.735l1.402.892a.39.39 0 00.188.063.385.385 0 00.195-.031L19.674 44a.471.471 0 01-.66-.431.47.47 0 01.329-.454c3.873-1.178 7.433-4.223 9.773-4.217 1.138.004 2.06.694 2.06 1.55 0 .134-.023.268-.07.4-.498 1.402.229 2.744 2.148 3.258a.729.729 0 01.532.693.728.728 0 01-.029.189 1.563 1.563 0 001.415-.658c.33-.004.69-.023 1.056-.061.045.09.08.191.099.303.08.403-.058.767-.306.847-.44.144-.979-.026-1.396-.022a1.437 1.437 0 00-1.425 1.44c0 .061.003.122.01.186a.86.86 0 00-.412.74c0 .157.041.304.115.429a2.12 2.12 0 01.918-.626 1.301 1.301 0 011.61-1.211 1.44 1.44 0 00-1.256 1.431c0 .048.003.106.006.16a.614.614 0 00.077.86c.133-.291.459-.573.873-.71.28-.093.558-.115.787-.064a1.062 1.062 0 01-.054-.348 1.132 1.132 0 011.3-1.125.894.894 0 00-.395 1.617c0 .016-.003.032-.003.051 0 .243.115.463.29.607a.89.89 0 01.874-.722c.373 0 .675-.048.905-.121a.968.968 0 00.67-.917.954.954 0 00-.345-.738c.102-.483.083-1.275-.08-1.933.035-.006.067-.006.102-.006.271 0 .507.137.648.351zm-19.723 8.169a.756.756 0 01.004-.316.456.456 0 01.45-.368.46.46 0 01.455.464c0 .121-.048.23-.124.316.086.006.175.01.267.01.233 0 .46-.03.657-.08a.765.765 0 00.558-.735.756.756 0 00-.756-.757h-.07a.882.882 0 011.224.811c0 .029-.003.054-.003.077 1.31-.029 2.786-1.224 3.108-1.684a5.644 5.644 0 01-1.32.147 5.977 5.977 0 01-1.488-.182c-.641-.173-1.275-.268-1.763-.268-1.607 0-2.91 1.05-2.91 2.345 0 1.07.886 2.006 2.107 2.255 2.783.572 6.053-1.09 8.82-1.661a9.055 9.055 0 012.368-1.671 1.263 1.263 0 01-.041-.316v-.01c-3.666.61-6.968 2.495-9.949 2.48-.835 0-1.488-.327-1.594-.857zm-.086-6.782c.058 0 .112.003.166.01A1.83 1.83 0 0019 47.243a.856.856 0 00-.587.815c0 .175.051.342.143.479a2.384 2.384 0 011.129-.703 1.509 1.509 0 011.31-1.198 1.591 1.591 0 00-.832 2.125.863.863 0 01.829-.633c.099 0 .194.02.284.051.12.045.251.064.392.064a1.148 1.148 0 001.09-1.514.732.732 0 01.398 1.105c.086.016.17.026.258.026a1.46 1.46 0 001.45-1.288c.377-.204.705-.479.992-.827l.198.977a.349.349 0 01-.01.198.38.38 0 01-.095.17l.822-.853a.332.332 0 00.099-.166.416.416 0 00.01-.198l-.246-1.192a.43.43 0 01.108-.364l.65-.665a.394.394 0 00-.098.173.412.412 0 00-.01.198l.243 1.188a.379.379 0 01-.007.198.418.418 0 01-.095.166l.733-.763a.38.38 0 00.099-.173.34.34 0 00.01-.194l-.243-1.192a.402.402 0 01.105-.364l.65-.662a.405.405 0 00-.099.166.416.416 0 00-.006.199l.242 1.194c.016.061.01.131-.01.192a.384.384 0 01-.092.17l.737-.764a.42.42 0 00.102-.368l-.118-.584c-.121-.655.551-1.412 1.09-1.489a.874.874 0 00.102-.4c0-.667-.79-1.207-1.772-1.207-.475 0-.912.128-1.23.339.127.38.155.766-1.097.945-.998.141-1.875.336-2.538.901-1.026.872-.943 2.039-1.527 2.476.262.067.59.067.944-.013.223-.044.427-.124.609-.21-.109.207-.357.409-.686.55-.108.411-.471.804-.965.98-.31.121-.619.134-.877.057l-1.199-.345a1.608 1.608 0 00-.465-.067c-.883 0-1.613.684-1.721 1.566a.863.863 0 00-.619 1.29c.287-.29.65-.508 1.062-.623a1.44 1.44 0 011.386-1.047zM13.646 57.11c.077-.393.102-.774.09-1.144l-.351.412a3.101 3.101 0 00-.163-.345c-.035-.067-.07-.112-.117-.121a.389.389 0 01-.096.041c-.045.01-.105 0-.144 0-.035 0-.098.01-.143 0-.038-.01-.07-.029-.096-.041-.047.01-.076.054-.118.12-.044.08-.092.183-.162.346l-.35-.412c-.014.37.015.75.092 1.144.258-.061.526-.08.777-.08.255 0 .523.019.781.08zm.157 1.054c.041-.447-.466-.604-.938-.604-.471 0-.975.157-.937.604.048.543.555.287.937.29.383-.003.89.253.938-.29zm1.348-3.208c-.092.026-.143.077-.153.176-.057.527-.268.735-.606.856-.006.53-.08.93-.223 1.428.405.837.096 1.428-.232 1.556-.31.121-.715-.041-1.068-.041-.354 0-.762.162-1.071.041-.329-.128-.638-.719-.236-1.556-.14-.498-.217-.897-.217-1.428-.341-.121-.555-.329-.609-.856-.013-.1-.06-.15-.153-.176-1.339-.367-1.463-2.035-.787-2.504-.06.744-.125 1.795 1.396 1.936-.026.878.354 1.111.743 1.111.315 0 .497-.102.577-.143.283-.154.089-.38.019-.45a.755.755 0 01-.249-.697c.006-.048.026-.074.07-.074h1.03c.041 0 .06.026.07.074a.777.777 0 01-.245.696c-.074.07-.268.297.012.45.08.042.262.144.584.144.385 0 .765-.233.74-1.111 1.52-.141 1.456-1.192 1.395-1.936.676.47.549 2.137-.787 2.504zm.411-2.907c0 .383-.28.812-.596.812h-.29a.51.51 0 11-.79 0h-.303c-.106 0-.185.038-.249.162-.022-.162-.045-.335-.006-.447.05-.156.172-.246.29-.246h1.339a.75.75 0 00.605-.281zm-.175-.636h-.469a.657.657 0 01-.529-.252l-.535-.697c-.09-.111-.16-.191-.271-.24h.526c.159 0 .302.068.41.208l.556.713c.127.15.162.25.312.268zm-2.442-1.153l.682.962a.78.78 0 00.357.31h-.628a.524.524 0 01-.487-.288l-.54-.824c-.203-.31-.286-.387-.522-.47h.58c.23 0 .443.147.558.31zm-1.55.172l.559.713c.124.15.162.25.309.268h-.469a.657.657 0 01-.529-.252l-.535-.697c-.086-.111-.156-.191-.271-.24h.529c.156 0 .296.068.408.208zm-.334 2.429h-.296c-.316 0-.596-.429-.596-.812.175.195.36.281.605.281h1.342c.118 0 .24.09.29.246.035.112.016.285-.003.447-.067-.124-.146-.162-.252-.162h-.302a.51.51 0 01-.396.83.51.51 0 01-.513-.508c0-.124.045-.236.121-.322zM9.407 59.26l.16-.323a.361.361 0 00.047-.189.452.452 0 00-.051-.191l.443.805a.425.425 0 01.051.185.38.38 0 01-.045.195l-.038.08c-.274.53-.529 1.527-.245 2.105-.66-.249-.877-.824-.807-1.306-1.24-1.182-1.552-2.374-.67-3.374l.457-.534a.37.37 0 00.089-.175.356.356 0 00-.003-.192l.239.882c.016.064.019.134.003.191a.391.391 0 01-.09.183l-.136.162c-.462.54-.341 1.272.385 1.927.077-.179.125-.275.21-.431zm30.433 3.322c.047-.118.073-.249.073-.383a1.01 1.01 0 00-1.001-1.013h-1.02a.418.418 0 01-.188-.045.383.383 0 01-.147-.13l-.51-.755a.411.411 0 00.338.18h1.339c.07 0 .134.015.191.044a.42.42 0 01.147.134l-.615-.904a.433.433 0 00-.15-.134.408.408 0 00-.188-.045l-1.326.003a.414.414 0 01-.192-.048.37.37 0 01-.146-.134l-.58-.85a.408.408 0 00.146.131.384.384 0 00.191.045h1.333c.07 0 .134.02.191.051.06.026.108.07.147.131l-.615-.91a.527.527 0 00-.147-.131.507.507 0 00-.188-.042H35.86a.411.411 0 01-.338-.179l-.714-1.048c1.444-.172 2.605-.955 2.834-2.031.3-1.397-1.084-2.751-3.092-3.048a.695.695 0 01-.596-.69c0-.3.188-.553.453-.658a1.83 1.83 0 00-.708-.144c-.89 0-1.607.642-1.607 1.428 0 .14.026.278.067.409-.994.428-1.9 1.191-2.594 2.016a9 9 0 012.323-.3c-.003-.042-.006-.08-.006-.116a1.09 1.09 0 011.09-1.092h.016c-.408.179-.612.575-.612.834a.566.566 0 00.89.463.778.778 0 01.86-.997.87.87 0 00-.503.792.874.874 0 001.023.863.63.63 0 01.606-.79.63.63 0 01.624.63c0 .754-.835.824-1.444.649-1.734-.502-3.36-.725-4.931-.505-2.015.281-5.317 1.649-8.82 1.537a11.079 11.079 0 01-2.503-.39c.105.112.176.192.22.262.341.533.46 1.09.156 1.789.01-.783-.637-1.428-1.179-1.821-.217-.16-.303-.313-.268-.514l.16-.905a.385.385 0 00.012.192.39.39 0 00.106.17l.334.329c.128-.914-.076-1.76-.621-2.553.242-.63.274-1.33.114-1.978-.067.492-.306.703-.535.85-.427.265-.497.719-.277 1.016-.357-.182-.858-.85-.568-1.24.31-.424 1.157-.226 1.262-.948-.551-.176-1.118-.051-1.29-.003-.326-.377-.756-.563-1.298-.56-.427-.39-.972-.55-1.642-.482-.666-.067-1.214.093-1.638.482-.539-.003-.972.183-1.3.56-.173-.048-.74-.173-1.292.003.106.722.954.524 1.263.949.29.39-.204 1.057-.568 1.24.223-.298.15-.752-.277-1.017-.226-.147-.469-.358-.536-.85a3.38 3.38 0 00.115 1.978c-.542.792-.749 1.639-.621 2.553l.338-.33a.384.384 0 00.102-.169.385.385 0 00.012-.192l.163.905c.035.2-.054.354-.271.514-.542.393-1.186 1.038-1.18 1.821-.3-.7-.178-1.278.16-1.79-1.027-.555-1.81-1.469-1.957-1.638-.31-.361-.268-.824.016-1.227.538-.78.669-1.61-.013-2.179a1.065 1.065 0 00-.845-1.17c.09.142.144.311.144.493a.89.89 0 01-.185.546.75.75 0 01-.112 1.03c.016-.08.022-.164.022-.244 0-.533-.325-.977-.771-1.102a.83.83 0 00-1.415-.422c.315.023.57.272.602.585-.15.115-.27.268-.35.45h.022a.982.982 0 01.966 1.167 1.074 1.074 0 00-.306-.588c-.303-.3-.746-.361-1.154-.211a.846.846 0 00-.65-.307.826.826 0 00-.705.39.942.942 0 01.73.393c-.427.546-.434 1.307.003 1.731.297.291.72.355 1.116.218a.264.264 0 01.347.252.26.26 0 01-.264.259.24.24 0 01-.166-.058.575.575 0 00-.94.518.574.574 0 01-.567-.14.77.77 0 00.685.965 1.21 1.21 0 001.816.536.528.528 0 01.303-.1c.29 0 .533.244.533.534a.537.537 0 01-.415.518l-.411.09a.377.377 0 01-.198-.007.383.383 0 01-.169-.093l.94.895a.41.41 0 00.37.102l.772-.172a.441.441 0 01.194.006.364.364 0 01.173.099l.647.613a.419.419 0 00-.367-.102l-.771.173a.51.51 0 01-.198-.007.366.366 0 01-.169-.099l.86.821a.307.307 0 00.173.093c.06.022.127.026.194.01l.775-.167a.377.377 0 01.198.007c.06.016.12.045.172.096l.644.613a.436.436 0 00-.173-.096.398.398 0 00-.194-.006l-.771.172a.408.408 0 01-.367-.102l.86.818a.411.411 0 00.37.105l.931-.207a76.267 76.267 0 00-2.891 1.74c-.602.384-1.265.458-2.024.164-.408-.154-.851-.182-1.129-.131a1.22 1.22 0 00-.854.588 1.23 1.23 0 011.326.272 1.696 1.696 0 00-1.217-.01c-.762.28-1.205 1-1.033 1.642a.765.765 0 00-.488.712c0 .211.09.406.23.543a.78.78 0 01.73-.607c.15.1.321.17.506.208.06-.102.131-.189.21-.262a1.258 1.258 0 011.246-1.447c.058 0 .116.003.173.003a1.27 1.27 0 00-.943 1.457.789.789 0 00-.325 1.249 1.415 1.415 0 011.118-.76c.185.05.38.083.58.083.128 0 .252-.013.37-.032a.983.983 0 01.81-1.54c.048 0 .092.006.137.013-.52.217-.835.67-.724 1.08.077.293.351.491.705.558-.006.22-.067.422-.169.601a1.261 1.261 0 001.036-.7c.536-.21.864-.677.755-1.086a.715.715 0 00-.258-.377c-.003-.013-.003-.022-.003-.038a.522.522 0 011.042 0 .525.525 0 01-.137.351h1.084c.067 0 .137-.019.191-.048a.392.392 0 00.147-.134l.698-1.035a.25.25 0 01.102-.09.244.244 0 01.128-.031h.854c-.048 0-.09.01-.13.032a.29.29 0 00-.1.09l-.7 1.034a.384.384 0 01-.144.134.424.424 0 01-.192.048h1.301c.067 0 .13-.019.188-.048a.392.392 0 00.147-.134l.784-1.156c-.539-.297-.762-.815-.762-1.527 0-.444.249-.95.287-1.275l.016-.131a.445.445 0 00-.026-.195.837.837 0 00-.095-.17l.666.69c.051.042.09.1.112.16.025.061.035.128.025.195l-.02.16c-.028.272-.372.86.266 1.396.031.029.108.087.181.131l.453.285v-1.671h.631v1.86c.003.07.022.133.054.188a.386.386 0 00.134.143l.622.393a.401.401 0 00.379.032l1.138-.495a.368.368 0 01-.191.032.369.369 0 01-.188-.064l-1.31-.834c.637-.536.293-1.124.261-1.396l-.02-.16a.445.445 0 01.026-.194.355.355 0 01.115-.16l.666-.69a.707.707 0 00-.095.17.403.403 0 00-.026.194l.013.13c.054.467.526 1.304.134 1.777l1.195.76a.373.373 0 00.185.061.386.386 0 00.198-.032l1.192-.517a.461.461 0 01-.195.032.426.426 0 01-.188-.064l-1.29-.824c.28-.575.044-1.499-.23-2.03l-.042-.079a.378.378 0 01-.041-.195c0-.06.016-.13.051-.185l.443-.805a.372.372 0 00-.048.191.355.355 0 00.042.189l.162.323c.083.156.134.252.207.43.73-.654.89-1.29.428-1.83l-.14-.163a.42.42 0 01-.084-.37l.24-.885a.34.34 0 00-.007.195.46.46 0 00.09.175l.455.53c.883 1.007.348 2.295-.707 3.279.06.188.111.543.067.738l1.402.888c.06.041.124.06.188.067a.427.427 0 00.195-.035l1.013-.444a.471.471 0 01-.66-.431c0-.215.138-.394.329-.454 3.873-1.18 7.433-4.224 9.773-4.217 1.138.003 2.06.693 2.06 1.546 0 .137-.023.271-.07.4-.498 1.402.229 2.743 2.148 3.264a.725.725 0 01.532.69.707.707 0 01-.029.189 1.563 1.563 0 001.415-.658c.33-.004.69-.023 1.056-.061.045.09.08.192.099.3.08.406-.058.77-.306.853-.44.14-.979-.032-1.396-.025a1.437 1.437 0 00-1.425 1.44c0 .064.003.122.01.186a.863.863 0 00-.412.741c0 .157.041.304.115.431a2.1 2.1 0 01.918-.63 1.301 1.301 0 011.61-1.21 1.44 1.44 0 00-1.256 1.431c0 .051.003.106.006.16a.604.604 0 00-.14.393.63.63 0 00.216.47c.134-.297.46-.572.874-.71.28-.095.558-.118.787-.07a1.036 1.036 0 01-.054-.348 1.131 1.131 0 011.3-1.121.895.895 0 00-.395 1.616l-.003.048a.79.79 0 00.29.61.893.893 0 01.874-.725c.373 0 .675-.041.905-.118a.968.968 0 00.67-.917c0-.3-.134-.569-.345-.735.102-.485.083-1.275-.08-1.936.035-.003.067-.006.102-.006.271 0 .507.14.648.351zM52.555 80V0h1.33v80h-1.33zM68.69 32.21v5.17h-.928V25.933h3.111c.989 0 1.735.265 2.241.795.504.53.756 1.32.756 2.374 0 .62-.137 1.163-.411 1.633a2.48 2.48 0 01-1.183 1.041c.555.185.95.502 1.183.952.232.454.347 1.029.347 1.732v1.08c0 .36.032.68.096.958.064.278.169.508.322.69v.192h-.95c-.163-.192-.268-.448-.319-.773a7.496 7.496 0 01-.073-1.087v-1.044c0-.71-.16-1.262-.475-1.665-.319-.402-.765-.6-1.345-.6h-2.372zm0-.82v-4.633h2.183c.711 0 1.234.198 1.566.594.331.396.5.978.5 1.745 0 .718-.172 1.278-.513 1.683-.338.41-.893.61-1.658.61H68.69zm11.821 1.63h-3.452v3.553h3.994v.805h-4.925v-9.163h4.925v.818h-3.994v3.17h3.452v.817zm3.376.936v3.422h-.927v-9.163h2.773c.813 0 1.447.262 1.903.792.453.524.676 1.22.676 2.087 0 .865-.223 1.559-.673 2.08-.45.52-1.087.782-1.906.782h-1.846zm0-.818V29.03h1.846c.555 0 .97.201 1.243.59.274.397.412.889.412 1.49 0 .575-.138 1.057-.412 1.447-.274.39-.688.581-1.243.581h-1.846zm12.143-4.924v6.064c0 1.035-.274 1.83-.823 2.393-.545.562-1.268.84-2.167.84-.912 0-1.642-.278-2.187-.84-.545-.563-.82-1.358-.82-2.393v-6.064h.919v6.064c0 .76.19 1.354.57 1.783.383.428.886.642 1.518.642.621 0 1.122-.214 1.501-.64.38-.421.57-1.018.57-1.785v-6.064h.919zm2.001 9.165v-9.163h2.346c.864 0 1.527.195 1.986.598.46.396.692 1.01.692 1.84 0 .476-.105.894-.31 1.249-.206.354-.5.61-.885.754v.025c.446.109.8.361 1.055.76.261.394.392.867.392 1.41 0 .84-.22 1.47-.657 1.894-.437.422-1.055.633-1.849.633h-2.77zm.928-5.029v-3.24h1.418c.603 0 1.046.122 1.33.368.28.243.42.645.42 1.204 0 .556-.143.972-.436 1.25-.287.28-.727.418-1.314.418h-1.418zm0 .773h1.842c.507 0 .896.15 1.17.457.274.304.408.722.408 1.259 0 .569-.134 1.006-.398 1.297-.268.294-.663.44-1.18.44h-1.842v-3.453zm7.149 3.452h3.423v.802h-4.35v-9.162h.927v8.36zm5.066.806v-9.166h.922v9.166h-.922zm8.592-2.985c-.048 1.045-.312 1.824-.8 2.342-.488.514-1.157.773-2.002.773-.857 0-1.556-.355-2.088-1.067-.535-.716-.803-1.658-.803-2.834v-1.613c0-1.17.268-2.115.803-2.83.532-.72 1.23-1.08 2.088-1.08.864 0 1.533.261 2.015.782.481.514.742 1.294.787 2.332h-.934c-.041-.786-.217-1.364-.52-1.738-.302-.37-.752-.556-1.348-.556-.59 0-1.068.282-1.428.847-.357.569-.536 1.313-.536 2.233v1.623c0 .927.179 1.674.536 2.243.36.565.838.85 1.428.85.6 0 1.052-.182 1.352-.55.302-.36.475-.949.516-1.757h.934zm10.958-.786c0 1.207-.274 2.156-.82 2.856-.541.696-1.268 1.045-2.18 1.045-.921 0-1.654-.349-2.2-1.045-.541-.7-.812-1.649-.812-2.856v-1.614c0-1.2.27-2.15.81-2.852.541-.703 1.271-1.058 2.186-1.058.909 0 1.642.355 2.19 1.058.548.702.826 1.651.826 2.852v1.614zm-.928-1.623v1.623c0 1.01-.182 1.783-.539 2.306-.363.524-.873.786-1.533.786-.666 0-1.18-.262-1.543-.786-.363-.523-.545-1.297-.545-2.306v-1.623c0-.997.179-1.764.542-2.29.36-.528.87-.79 1.53-.79s1.173.262 1.54.79c.366.526.548 1.293.548 2.29zm7.29 1.197h-3.461v4.195h-.925v-9.163h4.922v.815h-3.997v3.326h3.462v.827zm10.834-1.337h-4.215v4.713h4.849v.817h-5.773V25.924h5.728v.834h-4.804v4.271h4.215v.818zm6.57 3.242c0-.457-.136-.815-.4-1.077-.268-.262-.779-.527-1.53-.795-.912-.304-1.57-.64-1.968-1.01-.401-.37-.599-.933-.599-1.69 0-.754.236-1.348.714-1.783.469-.431 1.122-.645 1.954-.645.848 0 1.508.236 1.97.712.462.473.698 1.16.698 2.064h-.918c0-.588-.153-1.06-.456-1.421-.302-.358-.733-.537-1.294-.537-.593 0-1.026.15-1.32.45-.29.304-.43.687-.43 1.154 0 .46.121.82.373 1.076.246.259.768.524 1.562.796.902.303 1.556.642 1.967 1.019.408.374.609.936.609 1.68 0 .777-.252 1.374-.756 1.799-.507.418-1.198.63-2.084.63-.813 0-1.492-.215-2.031-.646-.542-.435-.813-1.144-.813-2.13h.928c0 .702.185 1.207.548 1.51.367.307.822.457 1.368.457.608 0 1.074-.15 1.408-.454.332-.3.5-.686.5-1.16zm7.73-6.058h-2.323v8.348h-.928v-8.348h-2.26v-.817h5.511v.817zm7.503 4.579c0 1.207-.271 2.156-.816 2.856-.542.696-1.269 1.045-2.18 1.045-.922 0-1.655-.349-2.2-1.045-.542-.7-.816-1.649-.816-2.856v-1.614c0-1.2.274-2.15.813-2.852.542-.703 1.272-1.058 2.187-1.058.911 0 1.641.355 2.186 1.058.552.702.826 1.651.826 2.852v1.614zm-.925-1.623v1.623c0 1.01-.181 1.783-.541 2.306-.36.524-.87.786-1.53.786-.664 0-1.18-.262-1.543-.786-.364-.523-.549-1.297-.549-2.306v-1.623c0-.997.182-1.764.545-2.29.36-.528.874-.79 1.53-.79.66 0 1.174.262 1.537.79.367.526.551 1.293.551 2.29zm8.829 5.392h-.925l-4.051-7.403-.023.007v7.396h-.924v-9.163h.924l4.052 7.4.022-.007v-7.393h.925v9.163zm2.251.002v-9.166h.925v9.166h-.925zm5.342-9.168h.896L189 37.379h-.956l-.73-2.368h-3.303l-.723 2.368h-.957l2.888-9.166zm.43 1.431h.023l1.39 4.546h-2.802l1.39-4.546zM72.223 50.857h-3.156v2.958h3.714v1.198h-5.282v-9.166h5.282v1.211h-3.714v2.588h3.156v1.21zm1.977-.189v-1.214h3.35v1.214H74.2zm6.634-.591v4.935h-1.578v-11.45h3.478c1.045 0 1.836.275 2.371.822.533.546.797 1.354.797 2.43 0 .617-.134 1.144-.414 1.585a2.818 2.818 0 01-1.202 1.032c.555.198.95.527 1.183.978.232.45.347 1.029.347 1.731v.997c0 .358.035.68.099.971.067.294.178.528.344.703v.201h-1.616c-.175-.182-.284-.44-.332-.782a8.09 8.09 0 01-.073-1.109v-.968c0-.655-.127-1.163-.38-1.527-.251-.364-.618-.55-1.096-.55h-1.928zm0-1.218v-4.076h1.855c.567 0 .985.176 1.246.53.262.355.39.866.39 1.54 0 .649-.135 1.15-.415 1.492-.278.342-.72.514-1.326.514h-1.75zm11.734 1.998h-3.156v2.958h3.714v1.198h-5.282v-9.166h5.282v1.211h-3.714v2.588h3.156v1.21zm6.545 1.762c0-.383-.108-.69-.328-.92-.22-.223-.638-.45-1.247-.67-.975-.285-1.673-.61-2.088-.994-.42-.38-.63-.971-.63-1.773 0-.773.254-1.396.761-1.853.507-.46 1.211-.69 2.11-.69.928 0 1.642.246 2.146.731.5.489.752 1.189.752 2.109h-1.572c0-.508-.108-.908-.325-1.198-.216-.294-.548-.435-1-.435-.453 0-.785.122-.995.364-.207.24-.316.56-.316.956 0 .396.102.706.31.923.2.217.643.44 1.326.668.93.284 1.606.616 2.03 1.01.424.395.638.983.638 1.763 0 .802-.271 1.425-.81 1.869-.539.444-1.278.664-2.222.664-.95 0-1.708-.227-2.266-.684-.561-.453-.842-1.175-.842-2.156h1.572c.006.597.146 1.026.427 1.272.28.249.65.373 1.11.373.487 0 .853-.121 1.096-.364.242-.243.363-.569.363-.965zm3.18 2.385v-9.16h1.578v9.16h-1.578zm3.57.005v-9.162h2.796c.928 0 1.7.345 2.308 1.038.606.69.909 1.597.909 2.725v1.649c0 1.121-.303 2.028-.909 2.718-.609.69-1.38 1.032-2.308 1.032h-2.795zm1.569-7.948h1.227c.478 0 .874.236 1.18.712.309.48.459 1.086.459 1.828v1.658c0 .757-.15 1.37-.46 1.843-.305.476-.7.712-1.179.712h-1.227v-6.753zm10.92 3.796h-3.155v2.958h3.713v1.198h-5.282v-9.166h5.282v1.211h-3.713v2.588h3.156v1.21zm8.807 4.152h-1.571l-3.274-6.277h-.022v6.277h-1.569v-9.162h1.569l3.273 6.268h.023v-6.268h1.571v9.162zm7.935-3.082c-.067 1.083-.36 1.885-.88 2.418-.516.534-1.23.799-2.135.799-.925 0-1.674-.358-2.248-1.074-.573-.715-.857-1.667-.857-2.853v-1.562c0-1.182.284-2.134.857-2.853.574-.722 1.323-1.083 2.248-1.083.924 0 1.638.272 2.155.805.516.537.806 1.339.876 2.412h-1.578c-.067-.696-.213-1.204-.436-1.524-.22-.322-.561-.479-1.017-.479-.475 0-.851.25-1.126.748-.274.501-.41 1.156-.41 1.965v1.571c0 .815.136 1.47.41 1.975.275.498.65.747 1.126.747.471 0 .816-.153 1.026-.46.21-.303.35-.824.42-1.552h1.57zm4.296-1.85l1.648-4.23h1.728l-2.611 5.875v3.29h-1.568v-3.376l-2.566-5.79h1.724l1.645 4.23z" fill="#FFF" fill-rule="evenodd"/></svg>
