<svg id="Layer_1" data-name="Layer 1" xmlns="http://www.w3.org/2000/svg" viewBox="0 0 591.03 591.82"><defs><style>.cls-1{fill:#fff;}</style></defs><path class="cls-1" d="M948.05,775.37c-.07,2.66-.22,5.32-.22,8q0,287.74,0,575.47v7.85H763.62c2.94-4.41,5.44-8.67,8.43-12.56,9.73-12.63,14.86-26.91,16.21-42.72,1.16-13.6,5.91-25.13,17.12-34.11,5-4,8-10.56,11.38-16.24,14.94-24.79,29.53-49.78,44.59-74.5,6.3-10.34,10.7-21,9.95-33.33-.48-7.89,2.2-14.61,6.55-21,7.51-11,15.11-21.93,18-35.33,2.46-11.49,3.95-22.93.56-34.5-3.93-13.38-12.91-18.35-26.65-15.67-15.63,3-28.35,10.94-39.66,21.7-13,12.4-23.15,10.47-29.05-6.51-2.89-8.32-4.07-17.48-4.51-26.34-1.18-23.94-1.31-47.92-2.31-71.87-.7-17-9.3-20.11-24.9-17.11s-28.95,10.73-39.88,22.32c-7.31,7.75-14.27,15.84-21.61,23.55a20.73,20.73,0,0,1-7.64,5.37c-6.36,2.23-13-.8-14.48-7.72-3.66-17.87-6.18-35.87,6.63-51.86,6.93-8.65,6.94-19.31.83-28.6-3.71-5.65-1.68-11.26,1-16.56,4.76-9.56,2.49-13.54-8.28-15.15-19.56-2.9-38.4,1.18-57.21,5.51-14.57,3.36-29.48,6.24-42,15-7.27,5.12-13.73,11.46-20.16,17.67-5.6,5.41-6.56,12.54-5.37,19.93.72,4.42,1.37,8.95,2.91,13.12,5.39,14.64,5.68,29.64,3.55,44.77-2.46,17.42-5.28,34.79-8.11,52.15-2,12.17-7.87,22.67-15.45,32-9.84,12.16-20.24,23.88-30.68,35.54a29.47,29.47,0,0,1-9.22,6.61c-3.69,1.76-7.61,1.28-10.11-2.61a9.28,9.28,0,0,1,2.06-11.62,32.18,32.18,0,0,1,5.79-3.88c12.65-6,21-27,16.4-42.61-2.88-9.78-11-14.32-20.93-12-14.76,3.42-18.37,7.7-21.52,23a64.16,64.16,0,0,1-6.45,17c-3.88,7.25-3.26,13.33,3.1,18.37,5.55,4.39,5.51,12-1,14.59-13.47,5.47-16.32,17.47-19.68,29.31-1.13,4-1.38,8.18-2.29,12.23-1.87,8.32-6,14.92-12.59,20.85-14.2,12.76-22,29.27-22,48.48a31,31,0,0,0,13.12,25.77c4.55,3.36,9.2,6.65,13.4,10.42,9.08,8.14,10.69,14.13,6,25.32-4.33,10.25-9.82,20-14.26,30.2a144.08,144.08,0,0,0-6.35,19.32c-.47,1.75.28,5.37,1.23,5.66,2.05.63,5.42.51,6.78-.81a220.3,220.3,0,0,0,18.67-20c9.08-11.37,16.39-23.83,20.19-38.1a47.61,47.61,0,0,1,3.54-8.23c3-6.27,7.8-9.45,15.06-9.36a33.17,33.17,0,0,0,20.57-6.53c5.44-4,6.23-9.26,2.09-14.65-3.89-5.08-3.56-10.78-3.43-16.66.37-16.81.77-33.63.52-50.44-.06-3.88-2.15-8-4.18-11.52-4-6.91-3.82-14.11,1.14-20.36,7.63-9.63,15.1-19.4,22.82-29a53,53,0,0,1,8.66-8.91c5.49-4.21,10.25-2.72,12.16,3.86a71.47,71.47,0,0,1,3,16.09c.77,15,.94,30,1.42,44.93q.75,23.44,1.66,46.88c.29,7.3-1.42,13.29-8.34,17.29-5,2.91-6.17,6.44-3.95,12a17.8,17.8,0,0,1-2.06,18c-15.47,21.83-22.13,47-28,72.51-1.51,6.58-4.69,12.77-6.92,19.21-1.13,3.25-3.62,2.84-6.11,2.84H364.84c-1.33,0-2.68-.11-4,0-2.84.28-4-1-3.8-3.76.06-.83,0-1.67,0-2.5q0-292.72,0-585.46Zm-347.4,78.42c-.64,5.14,1,11.22,7,13.47,6.49,2.42,13.81,4.07,20.65,3.7,7.08-.38,14.14-3.24,21-5.62,17.52-6.08,29.42-17.5,33.55-36.17,3.78-17.07-11.24-32.61-28.47-29.07-19,3.89-33.16,15.5-45.59,29.5C603.08,836,600.6,843.93,600.65,853.79ZM735,913.17c1,4.83,1.45,9.9,3.23,14.44,3.54,9,13.53,16.38,25.47,8.31,4.9-3.3,10.48-5.64,15.86-8.18,17.19-8.11,34.54-29.07,26.5-54a19.9,19.9,0,0,0-7.83-9.69c-7-4.56-15.17-4.31-23.14-2.46C751,867.15,735.73,887.16,735,913.17Zm144.31,95.13c-.28-2.08-.61-4.55-.94-7-1.33-10-8.92-15.67-18.94-14.65-23.94,2.44-33.92,21.87-38.21,41.37a7.45,7.45,0,0,0,.17,2.47c.89,6.56,4.37,11.34,10.78,12.91,8,1.94,16.3,1.4,21.2-5.87,4.55-6.75,10.45-10.92,17.42-14.18C877,1020.4,878.9,1015,879.27,1008.3Z" transform="translate(-357.02 -775.37)"/><path class="cls-1" d="M539.92,1367.07c4.19-17.21,10.56-32.55,20.22-46.58,5.84-8.49,10.63-17.7,16.42-26.23,9.81-14.43,14.05-30.7,16.68-47.57,1-6.06,1.62-12.18,2-18.3.66-9.32,5.42-16.5,11.13-23.41,9.11-11,18.63-21.8,26.8-33.5,7.4-10.6,13.43-22.18,19.68-33.54,4.4-8,2.79-13.35-4.75-18.9-8.33-6.13-8.37-10.49-.17-17.08,3.38-2.71,6.87-5.3,10.08-8.19,8.22-7.4,9.67-15.07,5-25-7.31-15.39,6.33-40.17,23.24-41.89,4.34-.44,8.82.48,11.5,4.55s.51,7.69-2.07,10.43c-9.59,10.17-8.9,22.1-7.43,34.69s2,25.16,2.49,37.76c.25,5.87-2.63,10-7.87,13.39a30.41,30.41,0,0,0-9.79,11.43,102.1,102.1,0,0,0-7.34,20.09,62.58,62.58,0,0,1-22.29,34c-14.34,11.36-24,26.06-30.28,43.17-2.21,6.06-2.14,11.13,3.65,15.48,2.2,1.65,3.62,4.75,4.63,7.47,2.57,6.92,3,7.4,10.36,7.37,1.66,0,3.33-.07,5-.1,12.46-.25,18.61,5.64,19,18.3.31,10.84-3.53,20.68-8.77,29.72-6.91,11.94-14.89,23.26-22.3,34.92a94,94,0,0,0-7.09,12.58c-1.73,4-4,5.13-8.32,5.08C586.32,1366.94,563.34,1367.07,539.92,1367.07Z" transform="translate(-357.02 -775.37)"/><path class="cls-1" d="M646.42,1367.08c-.06-.79-.23-1.21-.09-1.42,10.87-15.69,17.43-34.14,30.76-48.24,6.44-6.81,8.95-15.29,11.27-24.05a152.91,152.91,0,0,1,6.92-19.14c1.77-4.27,5.39-6.23,10.08-5.68,5.6.65,11.18,1.48,16.78,2.12a32.23,32.23,0,0,0,22.27-5.51,22.29,22.29,0,0,1,14.68-3.74c7.68.63,10.95,4.7,9.35,12.39a96.1,96.1,0,0,1-3.65,14c-9.22,24.74-18.7,49.38-28,74.11-1.51,4-3.8,5.35-8.16,5.31-25.65-.22-51.3-.11-76.95-.11Z" transform="translate(-357.02 -775.37)"/></svg>