<svg viewBox="0 0 16 16" fill="none" xmlns="http://www.w3.org/2000/svg">
    <path d="M5.36 9V6.376H6.872V6.656H5.692V7.48H6.688V7.764H5.692V8.716H6.912V9H5.36ZM7.46938 9V6.376H8.21738C8.41471 6.376 8.58671 6.4 8.73338 6.448C8.88004 6.496 8.99471 6.57733 9.07738 6.692C9.16004 6.804 9.20138 6.956 9.20138 7.148C9.20138 7.42267 9.11204 7.62667 8.93338 7.76C8.75471 7.89333 8.52138 7.96 8.23338 7.96H7.80138V9H7.46938ZM7.80138 7.688H8.19338C8.42271 7.688 8.59204 7.64533 8.70138 7.56C8.81338 7.472 8.86938 7.33467 8.86938 7.148C8.86938 6.95867 8.81071 6.828 8.69338 6.756C8.57871 6.68133 8.40671 6.644 8.17738 6.644H7.80138V7.688ZM10.4239 9.048C10.2399 9.048 10.0693 9.01333 9.91194 8.944C9.7546 8.872 9.6186 8.77733 9.50394 8.66L9.70394 8.428C9.79727 8.52667 9.9066 8.60667 10.0319 8.668C10.1599 8.72667 10.2919 8.756 10.4279 8.756C10.6013 8.756 10.7359 8.71733 10.8319 8.64C10.9279 8.56 10.9759 8.456 10.9759 8.328C10.9759 8.23733 10.9559 8.16533 10.9159 8.112C10.8786 8.05867 10.8266 8.01333 10.7599 7.976C10.6959 7.93867 10.6226 7.90133 10.5399 7.864L10.1639 7.7C10.0813 7.66533 9.9986 7.62 9.91594 7.564C9.83594 7.508 9.76794 7.436 9.71194 7.348C9.6586 7.26 9.63194 7.152 9.63194 7.024C9.63194 6.89067 9.6666 6.772 9.73594 6.668C9.80794 6.56133 9.9066 6.47867 10.0319 6.42C10.1573 6.35867 10.2986 6.328 10.4559 6.328C10.6133 6.328 10.7586 6.35867 10.8919 6.42C11.0253 6.47867 11.1386 6.556 11.2319 6.652L11.0519 6.868C10.9719 6.79067 10.8826 6.73067 10.7839 6.688C10.6879 6.64267 10.5786 6.62 10.4559 6.62C10.3093 6.62 10.1906 6.65467 10.0999 6.724C10.0119 6.79333 9.96794 6.88667 9.96794 7.004C9.96794 7.08667 9.98927 7.156 10.0319 7.212C10.0773 7.26533 10.1333 7.30933 10.1999 7.344C10.2666 7.37867 10.3346 7.41067 10.4039 7.44L10.7759 7.6C10.8773 7.64267 10.9679 7.69467 11.0479 7.756C11.1306 7.81467 11.1959 7.888 11.2439 7.976C11.2919 8.06133 11.3159 8.16933 11.3159 8.3C11.3159 8.43867 11.2799 8.56533 11.2079 8.68C11.1359 8.792 11.0333 8.88133 10.8999 8.948C10.7666 9.01467 10.6079 9.048 10.4239 9.048Z" fill="white"/>
</svg>
