<svg version="1.1" id="Layer_1" xmlns="http://www.w3.org/2000/svg" x="0" y="0" viewBox="0 0 113.5 70.9" style="enable-background:new 0 0 113.5 70.9" xml:space="preserve"><style>.st0{fill:#fff}</style><path class="st0" d="m0 29.3 18.4-18.4 15.3 15.3-6.1 6.2-3-3.1-3.1 3.1 3.1 3-3.1 3.1 3.1 3.1 3-3.1 6.1 6.1-15.3 15.3L0 41.6l6.2-6.2z"/><g class="st0"><path d="M39.9 44.6v-8.5H45v.9h-4.1v2.8h3.2l-.2.9h-3v3h3.5c0-.2.1-.5.2-.8.4.1.6.2.9.2-.1.6-.2.9-.3 1.5h-5.3zM47.2 44.6 48 37h-.8v-.9h5.5v.9H49l-.3 2.8h4v.9h-4.1l-.3 3h4.4v.9zM54.4 43.9l.5-.8c.9.6 1.8.8 2.6.8 1.3 0 1.9-.6 1.9-1.5 0-.6-.5-1.2-1.3-1.4l-1.8-.5c-1.2-.4-1.6-1.2-1.6-2.2 0-1.3 1.1-2.2 2.7-2.2 1 0 1.8.2 2.5.6l-.4.8c-.7-.3-1.4-.5-2.1-.5-1 0-1.7.4-1.7 1.3 0 .6.4 1.1 1.1 1.3l1.7.5c1.3.4 2.1 1.2 2.1 2.3 0 1.5-1.1 2.4-2.9 2.4-1.2 0-2.3-.2-3.3-.9M67.3 36.1l.5 1.6-.8.2-.2-.9h-2.1v7.6h-1V37h-2.1l-.3.9-.8-.3c.2-.7.3-1 .5-1.5h6.3zM68.9 36.1h1v8.5h-1zM79.7 41.6c-.2.1-.5.1-.6.1h-1.6v2.9h-1v-8.5h2.7c1.5 0 2.7 1.2 2.7 2.8 0 .9-.5 1.8-1.4 2.4l1.1 2.4h.7v.9h-.4c-.6 0-.9-.2-1.1-.6l-1.1-2.4zM77.5 37v3.8H79c1.1 0 2-.8 2-1.9 0-1-.9-1.9-2-1.9h-1.5zM88 36.1l2.8 8.5h-1l-.5-1.7h-4l-.6 1.7h-1l2.8-8.5H88zM85.5 42h3.4l-1.5-5h-.3l-1.6 5zM92.2 36.1h1v3.7h4.2v-3.7h1v8.5h-1v-3.9h-4.2v3.9h-1zM100.6 36.1l2.1 6.6c.1.2.2.6.2.9 0-.2.1-.6.2-.9.5-1.7 1.6-4.8 2.1-6.6h1c-1 3.1-1.8 5.5-2.7 8.5h-1.2l-2.8-8.5h1.1zM110.7 36.1l2.8 8.5h-1l-.5-1.7h-4l-.5 1.7h-1l2.8-8.5h1.4zm-2.5 5.9h3.4l-1.6-4.9h-.3l-1.5 4.9z"/></g><g class="st0"><path d="M44.7 55.4h-1L40.8 50v6.9h-.9v-8.5H41l3.2 5.8 3.1-5.8h1.2v8.5h-1V50zM56.4 53.5v-5.1h1v5.1c0 2-1.3 3.5-3.4 3.5s-3.4-1.5-3.4-3.5v-5.1h1v5.1c0 1.6.9 2.6 2.4 2.6 1.4 0 2.4-1 2.4-2.6M65.5 53.5v-5.1h1v5.1c0 2-1.3 3.5-3.4 3.5-2.1 0-3.4-1.5-3.4-3.5v-5.1h1v5.1c0 1.6.9 2.6 2.4 2.6 1.4 0 2.4-1 2.4-2.6M68.4 56.1l.5-.8c.9.6 1.8.8 2.6.8 1.3 0 1.9-.6 1.9-1.5 0-.6-.5-1.2-1.3-1.4l-1.8-.5c-1.2-.4-1.6-1.2-1.6-2.2 0-1.3 1.1-2.2 2.7-2.2 1 0 1.8.2 2.5.6l-.4.8c-.7-.3-1.4-.5-2.1-.5-1 0-1.7.4-1.7 1.3 0 .6.4 1.1 1.1 1.3l1.7.5c1.3.4 2.1 1.2 2.1 2.4 0 1.5-1.1 2.4-2.9 2.4-1.2-.1-2.3-.3-3.3-1M76.5 56.9v-8.5h5.1v.9h-4.1v2.8h3.2l-.2.9h-3v3H81c0-.2.1-.5.2-.8.4.1.6.2.9.2-.1.6-.2.9-.3 1.5h-5.3zM89.8 53.5v-5.1h1v5.1c0 2-1.3 3.5-3.4 3.5S84 55.5 84 53.5v-5.1h1v5.1c0 1.6.9 2.6 2.4 2.6s2.4-1 2.4-2.6M98.1 55.4h-.9L94.3 50v6.9h-1v-8.5h1.2l3.1 5.8 3.2-5.8h1.1v8.5h-.9V50z"/></g></svg>